SplineFontDB: 3.0
FontName: Awoof-Mono-Regular
FullName: Awoof Mono
FamilyName: Awoof
Weight: Regular
Copyright: 
Version: 001.000
ItalicAngle: 0
UnderlinePosition: -153.6
UnderlineWidth: 61.44
Ascent: 819
Descent: 205
InvalidEm: 0
sfntRevision: 0x00010000
LayerCount: 2
Layer: 0 1 "Back" 1
Layer: 1 1 "Fore" 0
XUID: [1021 740 1079781356 11858757]
StyleMap: 0x0040
FSType: 0
OS2Version: 4
OS2_WeightWidthSlopeOnly: 0
OS2_UseTypoMetrics: 0
CreationTime: 1513646632
ModificationTime: 1513650345
PfmFamily: 17
TTFWeight: 400
TTFWidth: 5
LineGap: 92
VLineGap: 0
Panose: 2 0 5 3 0 0 0 0 0 0
OS2TypoAscent: 819
OS2TypoAOffset: 0
OS2TypoDescent: -205
OS2TypoDOffset: 0
OS2TypoLinegap: 92
OS2WinAscent: 737
OS2WinAOffset: 0
OS2WinDescent: 25
OS2WinDOffset: 0
HheadAscent: 737
HheadAOffset: 0
HheadDescent: -25
HheadDOffset: 0
OS2SubXSize: 666
OS2SubYSize: 717
OS2SubXOff: 0
OS2SubYOff: 143
OS2SupXSize: 666
OS2SupYSize: 717
OS2SupXOff: 0
OS2SupYOff: 492
OS2StrikeYSize: 50
OS2StrikeYPos: 264
OS2CapHeight: 666
OS2XHeight: 436
OS2Vendor: 'CLGR'
OS2CodePages: 00000001.00000000
OS2UnicodeRanges: 00000003.00000000.00000000.00000000
MarkAttachClasses: 1
DEI: 91125
TtTable: prep
PUSHW_1
 511
SCANCTRL
PUSHB_1
 4
SCANTYPE
EndTTInstrs
ShortTable: cvt  2
  33
  633
EndShort
ShortTable: maxp 16
  1
  0
  100
  84
  7
  0
  0
  2
  0
  1
  1
  0
  64
  0
  0
  0
EndShort
LangName: 1033 "" "" "" "" "" "Version 001.000" "" "" "" "Ellen Dash" "" "" "" "" "" "" "Awoof" "Regular"
GaspTable: 1 65535 15 1
Encoding: UnicodeBmp
UnicodeInterp: none
NameList: AGL For New Fonts
DisplaySize: -48
AntiAlias: 1
FitToEm: 0
WinInfo: 0 38 14
BeginPrivate: 0
EndPrivate
BeginChars: 65538 98

StartChar: .notdef
Encoding: 65536 -1 0
Width: 372
Flags: W
LayerCount: 2
Fore
SplineSet
34 0 m 1,0,-1
 34 682 l 1,1,-1
 305 682 l 1,2,-1
 305 0 l 1,3,-1
 34 0 l 1,0,-1
68 34 m 1,4,-1
 271 34 l 1,5,-1
 271 648 l 1,6,-1
 68 648 l 1,7,-1
 68 34 l 1,4,-1
EndSplineSet
Validated: 1
EndChar

StartChar: exclam
Encoding: 33 33 3
Width: 550
Flags: W
LayerCount: 2
Fore
SplineSet
252 115 m 5,0,-1
 252 208 l 5,1,-1
 298 208 l 5,2,-1
 298 115 l 5,3,-1
 252 115 l 5,0,-1
252 301 m 5,4,-1
 252 674 l 5,5,-1
 298 674 l 5,6,-1
 298 301 l 5,7,-1
 252 301 l 5,4,-1
EndSplineSet
EndChar

StartChar: quotedbl
Encoding: 34 34 4
Width: 550
Flags: W
LayerCount: 2
Fore
SplineSet
310.5 534 m 5,0,-1
 310.5 674 l 5,1,-1
 356.5 674 l 5,2,-1
 356.5 534 l 5,3,-1
 310.5 534 l 5,0,-1
193.5 534 m 5,4,-1
 193.5 674 l 5,5,-1
 239.5 674 l 5,6,-1
 239.5 534 l 5,7,-1
 193.5 534 l 5,4,-1
EndSplineSet
EndChar

StartChar: numbersign
Encoding: 35 35 5
Width: 550
Flags: W
LayerCount: 2
Fore
SplineSet
321.5 301 m 1,0,-1
 321.5 487 l 1,1,-1
 227.5 487 l 1,2,-1
 227.5 301 l 1,3,-1
 321.5 301 l 1,0,-1
181.5 535 m 1,4,-1
 181.5 627 l 1,5,-1
 227.5 627 l 1,6,-1
 227.5 535 l 1,7,-1
 321.5 535 l 1,8,-1
 321.5 627 l 1,9,-1
 368.5 627 l 1,10,-1
 368.5 535 l 1,11,-1
 461.5 535 l 1,12,-1
 461.5 487 l 1,13,-1
 368.5 487 l 1,14,-1
 368.5 301 l 1,15,-1
 461.5 301 l 1,16,-1
 461.5 255 l 1,17,-1
 368.5 255 l 1,18,-1
 368.5 162 l 1,19,-1
 321.5 162 l 1,20,-1
 321.5 255 l 1,21,-1
 227.5 255 l 1,22,-1
 227.5 162 l 1,23,-1
 181.5 162 l 1,24,-1
 181.5 255 l 1,25,-1
 88.5 255 l 1,26,-1
 88.5 301 l 1,27,-1
 181.5 301 l 1,28,-1
 181.5 487 l 1,29,-1
 88.5 487 l 1,30,-1
 88.5 535 l 1,31,-1
 181.5 535 l 1,4,-1
EndSplineSet
Validated: 524289
EndChar

StartChar: dollar
Encoding: 36 36 6
Width: 550
Flags: W
LayerCount: 2
Fore
SplineSet
345.5 255 m 1,0,-1
 345.5 394 l 1,1,-1
 298.5 394 l 1,2,-1
 298.5 255 l 1,3,-1
 345.5 255 l 1,0,-1
252.5 441 m 1,4,-1
 252.5 535 l 1,5,-1
 204.5 535 l 1,6,-1
 204.5 441 l 1,7,-1
 252.5 441 l 1,4,-1
252.5 581 m 1,8,-1
 252.5 674 l 1,9,-1
 298.5 674 l 1,10,-1
 298.5 581 l 1,11,-1
 345.5 581 l 1,12,-1
 345.5 535 l 1,13,-1
 391.5 535 l 1,14,-1
 391.5 487 l 1,15,-1
 345.5 487 l 1,16,-1
 345.5 535 l 1,17,-1
 298.5 535 l 1,18,-1
 298.5 441 l 1,19,-1
 345.5 441 l 1,20,-1
 345.5 394 l 1,21,-1
 391.5 394 l 1,22,-1
 391.5 255 l 1,23,-1
 345.5 255 l 1,24,-1
 345.5 208 l 1,25,-1
 298.5 208 l 1,26,-1
 298.5 115 l 1,27,-1
 252.5 115 l 1,28,-1
 252.5 208 l 1,29,-1
 204.5 208 l 1,30,-1
 204.5 255 l 1,31,-1
 252.5 255 l 1,32,-1
 252.5 394 l 1,33,-1
 204.5 394 l 1,34,-1
 204.5 441 l 1,35,-1
 158.5 441 l 1,36,-1
 158.5 535 l 1,37,-1
 204.5 535 l 1,38,-1
 204.5 581 l 1,39,-1
 252.5 581 l 1,8,-1
204.5 255 m 1,40,-1
 158.5 255 l 1,41,-1
 158.5 301 l 1,42,-1
 204.5 301 l 1,43,-1
 204.5 255 l 1,40,-1
EndSplineSet
Validated: 524293
EndChar

StartChar: percent
Encoding: 37 37 7
Width: 550
Flags: W
LayerCount: 2
Fore
SplineSet
367 301 m 1,0,-1
 367 208 l 1,1,-1
 460 208 l 1,2,-1
 460 301 l 1,3,-1
 367 301 l 1,0,-1
367 301 m 1,4,-1
 367 348 l 1,5,-1
 460 348 l 1,6,-1
 460 301 l 1,7,-1
 508 301 l 1,8,-1
 508 208 l 1,9,-1
 460 208 l 1,10,-1
 460 162 l 1,11,-1
 367 162 l 1,12,-1
 367 208 l 1,13,-1
 321 208 l 1,14,-1
 321 301 l 1,15,-1
 367 301 l 1,4,-1
88 208 m 1,16,-1
 88 255 l 1,17,-1
 135 255 l 1,18,-1
 135 301 l 1,19,-1
 181 301 l 1,20,-1
 181 348 l 1,21,-1
 228 348 l 1,22,-1
 228 394 l 1,23,-1
 274 394 l 1,24,-1
 274 441 l 1,25,-1
 321 441 l 1,26,-1
 321 487 l 1,27,-1
 367 487 l 1,28,-1
 367 535 l 1,29,-1
 414 535 l 1,30,-1
 414 581 l 1,31,-1
 460 581 l 1,32,-1
 460 535 l 1,33,-1
 414 535 l 1,34,-1
 414 487 l 1,35,-1
 367 487 l 1,36,-1
 367 441 l 1,37,-1
 321 441 l 1,38,-1
 321 394 l 1,39,-1
 274 394 l 1,40,-1
 274 348 l 1,41,-1
 228 348 l 1,42,-1
 228 301 l 1,43,-1
 181 301 l 1,44,-1
 181 255 l 1,45,-1
 135 255 l 1,46,-1
 135 208 l 1,47,-1
 88 208 l 1,16,-1
88 208 m 1,48,-1
 88 162 l 1,49,-1
 42 162 l 1,50,-1
 42 208 l 1,51,-1
 88 208 l 1,48,-1
460 581 m 1,52,-1
 460 627 l 1,53,-1
 508 627 l 1,54,-1
 508 581 l 1,55,-1
 460 581 l 1,52,-1
88 581 m 1,56,-1
 88 487 l 1,57,-1
 181 487 l 1,58,-1
 181 581 l 1,59,-1
 88 581 l 1,56,-1
88 581 m 1,60,-1
 88 627 l 1,61,-1
 181 627 l 1,62,-1
 181 581 l 1,63,-1
 228 581 l 1,64,-1
 228 487 l 1,65,-1
 181 487 l 1,66,-1
 181 441 l 1,67,-1
 88 441 l 1,68,-1
 88 487 l 1,69,-1
 42 487 l 1,70,-1
 42 581 l 1,71,-1
 88 581 l 1,60,-1
EndSplineSet
Validated: 5
EndChar

StartChar: ampersand
Encoding: 38 38 8
Width: 550
Flags: W
LayerCount: 2
Fore
SplineSet
258.5 75 m 1,0,-1
 258.5 168 l 1,1,-1
 304.5 168 l 1,2,-1
 304.5 75 l 1,3,-1
 258.5 75 l 1,0,-1
252.5 633 m 1,4,-1
 252.5 726 l 1,5,-1
 298.5 726 l 1,6,-1
 298.5 633 l 1,7,-1
 252.5 633 l 1,4,-1
345.5 261 m 1,8,-1
 345.5 214 l 1,9,-1
 211.5 214 l 1,10,-1
 211.5 261 l 1,11,-1
 165.5 261 l 1,12,-1
 165.5 400 l 1,13,-1
 185.5 400 l 2,14,15
 199.5 400 199.5 400 202 403.5 c 128,-1,16
 204.5 407 204.5 407 204.5 424 c 2,17,-1
 204.5 446 l 1,18,-1
 158.5 446 l 1,19,-1
 158.5 540 l 1,20,-1
 204.5 540 l 1,21,-1
 204.5 446 l 1,22,-1
 345.5 446 l 1,23,-1
 345.5 400 l 1,24,-1
 203.5 400 l 1,25,-1
 207.5 352 l 2,26,27
 211.5 299 211.5 299 211.5 283 c 2,28,-1
 211.5 261 l 1,29,-1
 345.5 261 l 1,8,-1
345.5 261 m 1,30,-1
 345.5 307 l 1,31,-1
 391.5 307 l 1,32,-1
 391.5 261 l 1,33,-1
 345.5 261 l 1,30,-1
345.5 540 m 1,34,-1
 204.5 540 l 1,35,-1
 204.5 587 l 1,36,-1
 345.5 587 l 1,37,-1
 345.5 540 l 1,34,-1
345.5 540 m 1,38,-1
 391.5 540 l 1,39,-1
 391.5 532 l 4,40,-1
 391.5 494 l 1,41,-1
 345.5 494 l 1,42,-1
 345.5 540 l 1,38,-1
EndSplineSet
Validated: 524293
EndChar

StartChar: quotesingle
Encoding: 39 39 9
Width: 550
Flags: WO
LayerCount: 2
Fore
SplineSet
252 533 m 5,0,-1
 252 674 l 5,1,-1
 298 674 l 5,2,-1
 298 533 l 5,3,-1
 252 533 l 5,0,-1
EndSplineSet
EndChar

StartChar: parenleft
Encoding: 40 40 10
Width: 550
Flags: W
LayerCount: 2
Fore
SplineSet
321.5 86 m 1,0,-1
 275.5 86 l 1,1,-1
 275.5 133 l 1,2,-1
 227.5 133 l 1,3,-1
 227.5 179 l 1,4,-1
 181.5 179 l 1,5,-1
 181.5 505 l 1,6,-1
 227.5 505 l 1,7,-1
 227.5 552 l 1,8,-1
 275.5 552 l 1,9,-1
 275.5 598 l 1,10,-1
 321.5 598 l 1,11,-1
 321.5 645 l 1,12,-1
 368.5 645 l 1,13,-1
 368.5 598 l 1,14,-1
 321.5 598 l 1,15,-1
 321.5 552 l 1,16,-1
 275.5 552 l 1,17,-1
 275.5 505 l 1,18,-1
 227.5 505 l 1,19,-1
 227.5 179 l 1,20,-1
 275.5 179 l 1,21,-1
 275.5 133 l 1,22,-1
 321.5 133 l 1,23,-1
 321.5 86 l 1,0,-1
321.5 86 m 1,24,-1
 368.5 86 l 1,25,-1
 368.5 40 l 1,26,-1
 321.5 40 l 1,27,-1
 321.5 86 l 1,24,-1
EndSplineSet
Validated: 524293
EndChar

StartChar: parenright
Encoding: 41 41 11
Width: 550
Flags: W
LayerCount: 2
Fore
SplineSet
181.5 598 m 1,0,-1
 181.5 645 l 1,1,-1
 227.5 645 l 1,2,-1
 227.5 598 l 1,3,-1
 181.5 598 l 1,0,-1
227.5 86 m 1,4,-1
 227.5 133 l 1,5,-1
 275.5 133 l 1,6,-1
 275.5 179 l 1,7,-1
 321.5 179 l 1,8,-1
 321.5 505 l 1,9,-1
 275.5 505 l 1,10,-1
 275.5 552 l 1,11,-1
 227.5 552 l 1,12,-1
 227.5 598 l 1,13,-1
 275.5 598 l 1,14,-1
 275.5 552 l 1,15,-1
 321.5 552 l 1,16,-1
 321.5 505 l 1,17,-1
 368.5 505 l 1,18,-1
 368.5 179 l 1,19,-1
 321.5 179 l 1,20,-1
 321.5 133 l 1,21,-1
 275.5 133 l 1,22,-1
 275.5 86 l 1,23,-1
 227.5 86 l 1,4,-1
227.5 86 m 1,24,-1
 227.5 40 l 1,25,-1
 181.5 40 l 1,26,-1
 181.5 86 l 1,27,-1
 227.5 86 l 1,24,-1
EndSplineSet
Validated: 524293
EndChar

StartChar: asterisk
Encoding: 42 42 12
Width: 550
Flags: W
LayerCount: 2
Fore
SplineSet
252.5 552 m 1,0,-1
 252.5 645 l 1,1,-1
 298.5 645 l 1,2,-1
 298.5 552 l 1,3,-1
 391.5 552 l 1,4,-1
 391.5 505 l 1,5,-1
 298.5 505 l 1,6,-1
 298.5 459 l 1,7,-1
 252.5 459 l 1,8,-1
 252.5 505 l 1,9,-1
 158.5 505 l 1,10,-1
 158.5 552 l 1,11,-1
 252.5 552 l 1,0,-1
252.5 459 m 1,12,-1
 252.5 366 l 1,13,-1
 204.5 366 l 1,14,-1
 204.5 459 l 1,15,-1
 252.5 459 l 1,12,-1
298.5 459 m 1,16,-1
 345.5 459 l 1,17,-1
 345.5 366 l 1,18,-1
 298.5 366 l 1,19,-1
 298.5 459 l 1,16,-1
EndSplineSet
Validated: 524293
EndChar

StartChar: plus
Encoding: 43 43 13
Width: 550
Flags: W
LayerCount: 2
Fore
SplineSet
251.5 366 m 1,0,-1
 251.5 505 l 1,1,-1
 298.5 505 l 1,2,-1
 298.5 366 l 1,3,-1
 437.5 366 l 1,4,-1
 437.5 318 l 1,5,-1
 298.5 318 l 1,6,-1
 298.5 179 l 1,7,-1
 251.5 179 l 1,8,-1
 251.5 318 l 1,9,-1
 112.5 318 l 1,10,-1
 112.5 366 l 1,11,-1
 251.5 366 l 1,0,-1
EndSplineSet
Validated: 524289
EndChar

StartChar: comma
Encoding: 44 44 14
Width: 550
Flags: W
LayerCount: 2
Fore
SplineSet
251.5 115 m 1,0,-1
 251.5 208 l 1,1,-1
 344.5 208 l 1,2,-1
 344.5 115 l 1,3,-1
 298.5 115 l 1,4,-1
 298.5 69 l 1,5,-1
 205.5 69 l 1,6,-1
 205.5 115 l 1,7,-1
 251.5 115 l 1,0,-1
EndSplineSet
Validated: 524289
EndChar

StartChar: hyphen
Encoding: 45 45 15
Width: 550
Flags: W
LayerCount: 2
Fore
SplineSet
88.5 325 m 1,0,-1
 88.5 371 l 1,1,-1
 461.5 371 l 1,2,-1
 461.5 325 l 1,3,-1
 88.5 325 l 1,0,-1
EndSplineSet
Validated: 524289
EndChar

StartChar: period
Encoding: 46 46 16
Width: 550
Flags: W
LayerCount: 2
Fore
SplineSet
228.5 121 m 1,0,-1
 228.5 214 l 1,1,-1
 321.5 214 l 1,2,-1
 321.5 121 l 1,3,-1
 228.5 121 l 1,0,-1
EndSplineSet
Validated: 524289
EndChar

StartChar: slash
Encoding: 47 47 17
Width: 550
Flags: W
LayerCount: 2
Fore
SplineSet
181.5 211 m 1,0,-1
 181.5 304 l 1,1,-1
 227.5 304 l 1,2,-1
 227.5 398 l 1,3,-1
 275.5 398 l 1,4,-1
 275.5 492 l 1,5,-1
 322.5 492 l 1,6,-1
 322.5 585 l 1,7,-1
 369.5 585 l 1,8,-1
 369.5 492 l 1,9,-1
 322.5 492 l 1,10,-1
 322.5 398 l 1,11,-1
 275.5 398 l 1,12,-1
 275.5 304 l 1,13,-1
 227.5 304 l 1,14,-1
 227.5 211 l 1,15,-1
 181.5 211 l 1,0,-1
181.5 211 m 1,16,-1
 181.5 117 l 1,17,-1
 134.5 117 l 1,18,-1
 134.5 211 l 1,19,-1
 181.5 211 l 1,16,-1
369.5 585 m 1,20,-1
 369.5 679 l 1,21,-1
 415.5 679 l 1,22,-1
 415.5 585 l 1,23,-1
 369.5 585 l 1,20,-1
EndSplineSet
Validated: 524293
EndChar

StartChar: zero
Encoding: 48 48 18
Width: 550
Flags: W
LayerCount: 2
Fore
SplineSet
251.5 351 m 1,0,-1
 251.5 444 l 1,1,-1
 298.5 444 l 1,2,-1
 298.5 351 l 1,3,-1
 251.5 351 l 1,0,-1
251.5 351 m 1,4,-1
 251.5 257 l 1,5,-1
 204.5 257 l 1,6,-1
 204.5 351 l 1,7,-1
 251.5 351 l 1,4,-1
298.5 444 m 1,8,-1
 298.5 539 l 1,9,-1
 345.5 539 l 1,10,-1
 345.5 444 l 1,11,-1
 298.5 444 l 1,8,-1
204.5 257 m 1,12,-1
 204.5 164 l 1,13,-1
 345.5 164 l 1,14,-1
 345.5 211 l 1,15,-1
 391.5 211 l 1,16,-1
 391.5 539 l 1,17,-1
 345.5 539 l 1,18,-1
 345.5 632 l 1,19,-1
 204.5 632 l 1,20,-1
 204.5 585 l 1,21,-1
 158.5 585 l 1,22,-1
 158.5 257 l 1,23,-1
 204.5 257 l 1,12,-1
204.5 632 m 1,24,-1
 204.5 679 l 1,25,-1
 345.5 679 l 1,26,-1
 345.5 632 l 1,27,-1
 391.5 632 l 1,28,-1
 391.5 585 l 1,29,-1
 438.5 585 l 1,30,-1
 438.5 211 l 1,31,-1
 391.5 211 l 1,32,-1
 391.5 164 l 1,33,-1
 345.5 164 l 1,34,-1
 345.5 117 l 1,35,-1
 204.5 117 l 1,36,-1
 204.5 164 l 1,37,-1
 158.5 164 l 1,38,-1
 158.5 211 l 1,39,-1
 111.5 211 l 1,40,-1
 111.5 585 l 1,41,-1
 158.5 585 l 1,42,-1
 158.5 632 l 1,43,-1
 204.5 632 l 1,24,-1
EndSplineSet
Validated: 524293
EndChar

StartChar: one
Encoding: 49 49 19
Width: 550
Flags: W
LayerCount: 2
Fore
SplineSet
204.5 632 m 1,0,-1
 204.5 585 l 1,1,-1
 158.5 585 l 1,2,-1
 158.5 632 l 1,3,-1
 204.5 632 l 1,0,-1
204.5 632 m 1,4,-1
 204.5 679 l 1,5,-1
 298.5 679 l 1,6,-1
 298.5 164 l 1,7,-1
 438.5 164 l 1,8,-1
 438.5 117 l 1,9,-1
 111.5 117 l 1,10,-1
 111.5 164 l 1,11,-1
 251.5 164 l 1,12,-1
 251.5 632 l 1,13,-1
 204.5 632 l 1,4,-1
EndSplineSet
Validated: 524293
EndChar

StartChar: two
Encoding: 50 50 20
Width: 550
Flags: W
LayerCount: 2
Fore
SplineSet
158.5 585 m 1,0,-1
 158.5 632 l 1,1,-1
 204.5 632 l 1,2,-1
 204.5 585 l 1,3,-1
 158.5 585 l 1,0,-1
158.5 585 m 1,4,-1
 158.5 539 l 1,5,-1
 111.5 539 l 1,6,-1
 111.5 585 l 1,7,-1
 158.5 585 l 1,4,-1
158.5 211 m 1,8,-1
 158.5 257 l 1,9,-1
 204.5 257 l 1,10,-1
 204.5 304 l 1,11,-1
 251.5 304 l 1,12,-1
 251.5 351 l 1,13,-1
 298.5 351 l 1,14,-1
 298.5 398 l 1,15,-1
 345.5 398 l 1,16,-1
 345.5 444 l 1,17,-1
 391.5 444 l 1,18,-1
 391.5 585 l 1,19,-1
 345.5 585 l 1,20,-1
 345.5 632 l 1,21,-1
 204.5 632 l 1,22,-1
 204.5 679 l 1,23,-1
 345.5 679 l 1,24,-1
 345.5 632 l 1,25,-1
 391.5 632 l 1,26,-1
 391.5 585 l 1,27,-1
 438.5 585 l 1,28,-1
 438.5 444 l 1,29,-1
 391.5 444 l 1,30,-1
 391.5 398 l 1,31,-1
 345.5 398 l 1,32,-1
 345.5 351 l 1,33,-1
 298.5 351 l 1,34,-1
 298.5 304 l 1,35,-1
 251.5 304 l 1,36,-1
 251.5 257 l 1,37,-1
 204.5 257 l 1,38,-1
 204.5 211 l 1,39,-1
 158.5 211 l 1,8,-1
158.5 211 m 1,40,-1
 158.5 164 l 1,41,-1
 438.5 164 l 1,42,-1
 438.5 117 l 1,43,-1
 111.5 117 l 1,44,-1
 111.5 211 l 1,45,-1
 158.5 211 l 1,40,-1
EndSplineSet
Validated: 524293
EndChar

StartChar: three
Encoding: 51 51 21
Width: 550
Flags: W
LayerCount: 2
Fore
SplineSet
227.5 632 m 1,0,-1
 227.5 679 l 1,1,-1
 368.5 679 l 1,2,-1
 368.5 632 l 1,3,-1
 227.5 632 l 1,4,-1
 227.5 585 l 1,5,-1
 180.5 585 l 1,6,-1
 180.5 632 l 1,7,-1
 227.5 632 l 1,0,-1
180.5 585 m 1,8,-1
 180.5 539 l 1,9,-1
 134.5 539 l 1,10,-1
 134.5 585 l 1,11,-1
 180.5 585 l 1,8,-1
134.5 164 m 1,12,-1
 368.5 164 l 1,13,-1
 368.5 211 l 1,14,-1
 415.5 211 l 1,15,-1
 415.5 351 l 1,16,-1
 368.5 351 l 1,17,-1
 368.5 398 l 1,18,-1
 275.5 398 l 1,19,-1
 275.5 444 l 1,20,-1
 368.5 444 l 1,21,-1
 368.5 492 l 1,22,-1
 415.5 492 l 1,23,-1
 415.5 585 l 1,24,-1
 368.5 585 l 1,25,-1
 368.5 632 l 1,26,-1
 415.5 632 l 1,27,-1
 415.5 585 l 1,28,-1
 462.5 585 l 1,29,-1
 462.5 492 l 1,30,-1
 415.5 492 l 1,31,-1
 415.5 444 l 1,32,-1
 368.5 444 l 1,33,-1
 368.5 398 l 1,34,-1
 415.5 398 l 1,35,-1
 415.5 351 l 1,36,-1
 462.5 351 l 1,37,-1
 462.5 211 l 1,38,-1
 415.5 211 l 1,39,-1
 415.5 164 l 1,40,-1
 368.5 164 l 1,41,-1
 368.5 117 l 1,42,-1
 134.5 117 l 1,43,-1
 134.5 164 l 1,12,-1
134.5 164 m 1,44,-1
 87.5 164 l 1,45,-1
 87.5 211 l 1,46,-1
 134.5 211 l 1,47,-1
 134.5 164 l 1,44,-1
EndSplineSet
Validated: 524293
EndChar

StartChar: four
Encoding: 52 52 22
Width: 550
Flags: W
LayerCount: 2
Fore
SplineSet
345.5 678 m 1,0,1
 352.5 678 352.5 678 367 680 c 128,-1,2
 381.5 682 381.5 682 388.5 682 c 1,3,-1
 390.5 540 l 1,4,-1
 391.5 398 l 1,5,-1
 415.5 398 l 2,6,7
 432.5 398 432.5 398 435.5 395 c 128,-1,8
 438.5 392 438.5 392 438.5 375 c 2,9,-1
 438.5 351 l 1,10,-1
 391.5 351 l 1,11,-1
 391.5 117 l 1,12,-1
 345.5 117 l 1,13,-1
 345.5 351 l 1,14,-1
 111.5 351 l 1,15,-1
 111.5 679 l 1,16,-1
 158.5 679 l 1,17,-1
 158.5 398 l 1,18,-1
 345.5 398 l 1,19,-1
 345.5 678 l 1,0,1
EndSplineSet
Validated: 524289
EndChar

StartChar: five
Encoding: 53 53 23
Width: 550
Flags: W
LayerCount: 2
Fore
SplineSet
111.5 403 m 1,0,-1
 111.5 685 l 1,1,-1
 438.5 685 l 1,2,-1
 438.5 638 l 1,3,-1
 158.5 638 l 1,4,-1
 158.5 451 l 1,5,-1
 345.5 451 l 1,6,-1
 345.5 403 l 1,7,-1
 111.5 403 l 1,0,-1
158.5 170 m 1,8,-1
 345.5 170 l 1,9,-1
 345.5 216 l 1,10,-1
 391.5 216 l 1,11,-1
 391.5 357 l 1,12,-1
 345.5 357 l 1,13,-1
 345.5 403 l 1,14,-1
 391.5 403 l 1,15,-1
 391.5 357 l 1,16,-1
 438.5 357 l 1,17,-1
 438.5 216 l 1,18,-1
 391.5 216 l 1,19,-1
 391.5 170 l 1,20,-1
 345.5 170 l 1,21,-1
 345.5 123 l 1,22,-1
 158.5 123 l 1,23,-1
 158.5 170 l 1,8,-1
158.5 170 m 1,24,-1
 111.5 170 l 1,25,-1
 111.5 216 l 1,26,-1
 158.5 216 l 1,27,-1
 158.5 170 l 1,24,-1
EndSplineSet
Validated: 524293
EndChar

StartChar: six
Encoding: 54 54 24
Width: 550
Flags: W
LayerCount: 2
Fore
SplineSet
158.5 216 m 1,0,-1
 204.5 216 l 1,1,-1
 204.5 170 l 1,2,-1
 345.5 170 l 1,3,-1
 345.5 216 l 1,4,-1
 391.5 216 l 1,5,-1
 391.5 357 l 1,6,-1
 345.5 357 l 1,7,-1
 345.5 403 l 1,8,-1
 204.5 403 l 1,9,-1
 204.5 357 l 1,10,-1
 158.5 357 l 1,11,-1
 158.5 216 l 1,0,-1
158.5 216 m 1,12,-1
 111.5 216 l 1,13,-1
 111.5 544 l 1,14,-1
 158.5 544 l 1,15,-1
 158.5 638 l 1,16,-1
 204.5 638 l 1,17,-1
 204.5 685 l 1,18,-1
 391.5 685 l 1,19,-1
 391.5 638 l 1,20,-1
 204.5 638 l 1,21,-1
 204.5 544 l 1,22,-1
 158.5 544 l 1,23,-1
 158.5 403 l 1,24,-1
 204.5 403 l 1,25,-1
 204.5 451 l 1,26,-1
 345.5 451 l 1,27,-1
 345.5 403 l 1,28,-1
 391.5 403 l 1,29,-1
 391.5 357 l 1,30,-1
 438.5 357 l 1,31,-1
 438.5 216 l 1,32,-1
 391.5 216 l 1,33,-1
 391.5 170 l 1,34,-1
 345.5 170 l 1,35,-1
 345.5 123 l 1,36,-1
 204.5 123 l 1,37,-1
 204.5 170 l 1,38,-1
 158.5 170 l 1,39,-1
 158.5 216 l 1,12,-1
391.5 638 m 1,40,-1
 438.5 638 l 1,41,-1
 438.5 591 l 1,42,-1
 391.5 591 l 1,43,-1
 391.5 638 l 1,40,-1
EndSplineSet
Validated: 524293
EndChar

StartChar: seven
Encoding: 55 55 25
Width: 550
Flags: W
LayerCount: 2
Fore
SplineSet
111.5 638 m 1,0,-1
 111.5 685 l 1,1,-1
 438.5 685 l 1,2,-1
 438.5 544 l 1,3,-1
 391.5 544 l 1,4,-1
 391.5 638 l 1,5,-1
 111.5 638 l 1,0,-1
298.5 357 m 1,6,-1
 298.5 403 l 1,7,-1
 204.5 403 l 1,8,-1
 204.5 451 l 1,9,-1
 345.5 451 l 1,10,-1
 345.5 544 l 1,11,-1
 391.5 544 l 1,12,-1
 391.5 451 l 1,13,-1
 438.5 451 l 1,14,-1
 438.5 403 l 1,15,-1
 345.5 403 l 1,16,-1
 345.5 357 l 1,17,-1
 298.5 357 l 1,6,-1
298.5 357 m 1,18,-1
 298.5 263 l 1,19,-1
 251.5 263 l 1,20,-1
 251.5 123 l 1,21,-1
 204.5 123 l 1,22,-1
 204.5 263 l 1,23,-1
 251.5 263 l 1,24,-1
 251.5 357 l 1,25,-1
 298.5 357 l 1,18,-1
EndSplineSet
Validated: 524293
EndChar

StartChar: eight
Encoding: 56 56 26
Width: 550
Flags: W
LayerCount: 2
Fore
SplineSet
368.5 353 m 1,0,-1
 368.5 400 l 1,1,-1
 181.5 400 l 1,2,-1
 181.5 353 l 1,3,-1
 134.5 353 l 1,4,-1
 134.5 214 l 1,5,-1
 181.5 214 l 1,6,-1
 181.5 168 l 1,7,-1
 368.5 168 l 1,8,-1
 368.5 214 l 1,9,-1
 414.5 214 l 1,10,-1
 414.5 353 l 1,11,-1
 368.5 353 l 1,0,-1
368.5 587 m 1,12,-1
 368.5 633 l 1,13,-1
 181.5 633 l 1,14,-1
 181.5 587 l 1,15,-1
 134.5 587 l 1,16,-1
 134.5 494 l 1,17,-1
 181.5 494 l 1,18,-1
 181.5 446 l 1,19,-1
 368.5 446 l 1,20,-1
 368.5 494 l 1,21,-1
 414.5 494 l 1,22,-1
 414.5 587 l 1,23,-1
 368.5 587 l 1,12,-1
134.5 587 m 1,24,-1
 134.5 633 l 1,25,-1
 181.5 633 l 1,26,-1
 181.5 680 l 1,27,-1
 368.5 680 l 1,28,-1
 368.5 633 l 1,29,-1
 414.5 633 l 1,30,-1
 414.5 587 l 1,31,-1
 461.5 587 l 1,32,-1
 461.5 494 l 1,33,-1
 414.5 494 l 1,34,-1
 414.5 446 l 1,35,-1
 368.5 446 l 1,36,-1
 368.5 400 l 1,37,-1
 414.5 400 l 1,38,-1
 414.5 353 l 1,39,-1
 461.5 353 l 1,40,-1
 461.5 214 l 1,41,-1
 414.5 214 l 1,42,-1
 414.5 168 l 1,43,-1
 368.5 168 l 1,44,-1
 368.5 121 l 1,45,-1
 181.5 121 l 1,46,-1
 181.5 168 l 1,47,-1
 134.5 168 l 1,48,-1
 134.5 214 l 1,49,-1
 88.5 214 l 1,50,-1
 88.5 353 l 1,51,-1
 134.5 353 l 1,52,-1
 134.5 400 l 1,53,-1
 181.5 400 l 1,54,-1
 181.5 446 l 1,55,-1
 134.5 446 l 1,56,-1
 134.5 494 l 1,57,-1
 88.5 494 l 1,58,-1
 88.5 587 l 1,59,-1
 134.5 587 l 1,24,-1
EndSplineSet
Validated: 524293
EndChar

StartChar: nine
Encoding: 57 57 27
Width: 550
Flags: W
LayerCount: 2
Fore
SplineSet
344.5 587 m 1,0,-1
 344.5 633 l 1,1,-1
 205.5 633 l 1,2,-1
 205.5 587 l 1,3,-1
 158.5 587 l 1,4,-1
 158.5 494 l 1,5,-1
 205.5 494 l 1,6,-1
 205.5 446 l 1,7,-1
 344.5 446 l 1,8,-1
 344.5 494 l 1,9,-1
 391.5 494 l 1,10,-1
 391.5 587 l 1,11,-1
 344.5 587 l 1,0,-1
205.5 633 m 1,12,-1
 205.5 680 l 1,13,-1
 344.5 680 l 1,14,-1
 344.5 633 l 1,15,-1
 391.5 633 l 1,16,-1
 391.5 587 l 1,17,-1
 437.5 587 l 1,18,-1
 437.5 121 l 1,19,-1
 391.5 121 l 1,20,-1
 391.5 446 l 1,21,-1
 344.5 446 l 1,22,-1
 344.5 400 l 1,23,-1
 205.5 400 l 1,24,-1
 205.5 446 l 1,25,-1
 158.5 446 l 1,26,-1
 158.5 494 l 1,27,-1
 112.5 494 l 1,28,-1
 112.5 587 l 1,29,-1
 158.5 587 l 1,30,-1
 158.5 633 l 1,31,-1
 205.5 633 l 1,12,-1
EndSplineSet
Validated: 524293
EndChar

StartChar: colon
Encoding: 58 58 28
Width: 550
Flags: W
LayerCount: 2
Fore
SplineSet
228.5 121 m 1,0,-1
 228.5 214 l 1,1,-1
 321.5 214 l 1,2,-1
 321.5 121 l 1,3,-1
 228.5 121 l 1,0,-1
228.5 353 m 1,4,-1
 228.5 446 l 1,5,-1
 321.5 446 l 1,6,-1
 321.5 353 l 1,7,-1
 228.5 353 l 1,4,-1
EndSplineSet
Validated: 524289
EndChar

StartChar: semicolon
Encoding: 59 59 29
Width: 550
Flags: W
LayerCount: 2
Fore
SplineSet
251.5 121 m 1,0,-1
 251.5 214 l 1,1,-1
 344.5 214 l 1,2,-1
 344.5 121 l 1,3,-1
 298.5 121 l 1,4,-1
 298.5 75 l 1,5,-1
 205.5 75 l 1,6,-1
 205.5 121 l 1,7,-1
 251.5 121 l 1,0,-1
251.5 353 m 1,8,-1
 251.5 446 l 1,9,-1
 344.5 446 l 1,10,-1
 344.5 353 l 1,11,-1
 251.5 353 l 1,8,-1
EndSplineSet
Validated: 524289
EndChar

StartChar: less
Encoding: 60 60 30
Width: 550
Flags: W
LayerCount: 2
Fore
SplineSet
345.5 494 m 1,0,-1
 345.5 540 l 1,1,-1
 391.5 540 l 1,2,-1
 391.5 494 l 1,3,-1
 345.5 494 l 1,4,-1
 345.5 446 l 1,5,-1
 298.5 446 l 1,6,-1
 298.5 494 l 1,7,-1
 345.5 494 l 1,0,-1
345.5 168 m 1,8,-1
 298.5 168 l 1,9,-1
 298.5 214 l 1,10,-1
 252.5 214 l 1,11,-1
 252.5 261 l 1,12,-1
 204.5 261 l 1,13,-1
 204.5 307 l 1,14,-1
 158.5 307 l 1,15,-1
 158.5 353 l 1,16,-1
 204.5 353 l 1,17,-1
 204.5 400 l 1,18,-1
 252.5 400 l 1,19,-1
 252.5 446 l 1,20,-1
 298.5 446 l 1,21,-1
 298.5 400 l 1,22,-1
 252.5 400 l 1,23,-1
 252.5 353 l 1,24,-1
 204.5 353 l 1,25,-1
 204.5 307 l 1,26,-1
 252.5 307 l 1,27,-1
 252.5 261 l 1,28,-1
 298.5 261 l 1,29,-1
 298.5 214 l 1,30,-1
 345.5 214 l 1,31,-1
 345.5 168 l 1,8,-1
345.5 168 m 1,32,-1
 391.5 168 l 1,33,-1
 391.5 121 l 1,34,-1
 345.5 121 l 1,35,-1
 345.5 168 l 1,32,-1
EndSplineSet
Validated: 524293
EndChar

StartChar: equal
Encoding: 61 61 31
Width: 550
Flags: W
LayerCount: 2
Fore
SplineSet
112.5 214 m 1,0,-1
 112.5 261 l 1,1,-1
 437.5 261 l 1,2,-1
 437.5 214 l 1,3,-1
 112.5 214 l 1,0,-1
112.5 353 m 1,4,-1
 112.5 400 l 1,5,-1
 437.5 400 l 1,6,-1
 437.5 353 l 1,7,-1
 112.5 353 l 1,4,-1
EndSplineSet
Validated: 524289
EndChar

StartChar: greater
Encoding: 62 62 32
Width: 550
Flags: W
LayerCount: 2
Fore
SplineSet
158.5 500 m 1,0,-1
 158.5 546 l 1,1,-1
 204.5 546 l 1,2,-1
 204.5 500 l 1,3,-1
 158.5 500 l 1,0,-1
298.5 266 m 1,4,-1
 298.5 313 l 1,5,-1
 345.5 313 l 1,6,-1
 345.5 359 l 1,7,-1
 298.5 359 l 1,8,-1
 298.5 407 l 1,9,-1
 252.5 407 l 1,10,-1
 252.5 453 l 1,11,-1
 204.5 453 l 1,12,-1
 204.5 500 l 1,13,-1
 252.5 500 l 1,14,-1
 252.5 453 l 1,15,-1
 298.5 453 l 1,16,-1
 298.5 407 l 1,17,-1
 345.5 407 l 1,18,-1
 345.5 359 l 1,19,-1
 391.5 359 l 1,20,-1
 391.5 313 l 1,21,-1
 345.5 313 l 1,22,-1
 345.5 266 l 1,23,-1
 298.5 266 l 1,4,-1
298.5 266 m 1,24,-1
 298.5 220 l 1,25,-1
 252.5 220 l 1,26,-1
 252.5 173 l 1,27,-1
 204.5 173 l 1,28,-1
 204.5 127 l 1,29,-1
 158.5 127 l 1,30,-1
 158.5 173 l 1,31,-1
 204.5 173 l 1,32,-1
 204.5 220 l 1,33,-1
 252.5 220 l 1,34,-1
 252.5 266 l 1,35,-1
 298.5 266 l 1,24,-1
EndSplineSet
Validated: 524293
EndChar

StartChar: question
Encoding: 63 63 33
Width: 550
Flags: W
LayerCount: 2
Fore
SplineSet
251.5 127 m 1,0,-1
 251.5 220 l 1,1,-1
 298.5 220 l 1,2,-1
 298.5 127 l 1,3,-1
 251.5 127 l 1,0,-1
391.5 500 m 1,4,-1
 391.5 592 l 1,5,-1
 344.5 592 l 1,6,-1
 344.5 639 l 1,7,-1
 205.5 639 l 1,8,-1
 205.5 592 l 1,9,-1
 158.5 592 l 1,10,-1
 158.5 546 l 1,11,-1
 112.5 546 l 1,12,-1
 112.5 592 l 1,13,-1
 158.5 592 l 1,14,-1
 158.5 639 l 1,15,-1
 205.5 639 l 1,16,-1
 205.5 685 l 1,17,-1
 344.5 685 l 1,18,-1
 344.5 639 l 1,19,-1
 391.5 639 l 1,20,-1
 391.5 592 l 1,21,-1
 437.5 592 l 1,22,-1
 437.5 500 l 1,23,-1
 391.5 500 l 1,4,-1
391.5 500 m 1,24,-1
 391.5 453 l 1,25,-1
 344.5 453 l 1,26,-1
 344.5 407 l 1,27,-1
 298.5 407 l 1,28,-1
 298.5 313 l 1,29,-1
 251.5 313 l 1,30,-1
 251.5 453 l 1,31,-1
 344.5 453 l 1,32,-1
 344.5 500 l 1,33,-1
 391.5 500 l 1,24,-1
EndSplineSet
Validated: 524293
EndChar

StartChar: at
Encoding: 64 64 34
Width: 550
Flags: W
LayerCount: 2
Fore
SplineSet
181 546 m 1,0,-1
 181 592 l 1,1,-1
 367 592 l 1,2,-1
 367 546 l 1,3,-1
 181 546 l 1,4,-1
 181 500 l 1,5,-1
 135 500 l 1,6,-1
 135 546 l 1,7,-1
 181 546 l 1,0,-1
88 266 m 1,8,-1
 42 266 l 1,9,-1
 42 453 l 1,10,-1
 88 453 l 1,11,-1
 88 500 l 1,12,-1
 135 500 l 1,13,-1
 135 453 l 1,14,-1
 88 453 l 1,15,-1
 88 266 l 1,8,-1
88 266 m 1,16,-1
 135 266 l 1,17,-1
 135 220 l 1,18,-1
 321 220 l 1,19,-1
 321 173 l 1,20,-1
 135 173 l 1,21,-1
 135 220 l 1,22,-1
 88 220 l 1,23,-1
 88 266 l 1,16,-1
321 453 m 1,24,-1
 228 453 l 1,25,-1
 228 407 l 1,26,-1
 181 407 l 1,27,-1
 181 313 l 1,28,-1
 274 313 l 1,29,-1
 274 359 l 1,30,-1
 321 359 l 1,31,-1
 321 453 l 1,24,-1
321 453 m 1,32,-1
 367 453 l 1,33,-1
 367 266 l 1,34,-1
 460 266 l 1,35,-1
 460 453 l 1,36,-1
 414 453 l 1,37,-1
 414 500 l 1,38,-1
 367 500 l 1,39,-1
 367 546 l 1,40,-1
 414 546 l 1,41,-1
 414 500 l 1,42,-1
 460 500 l 1,43,-1
 460 453 l 1,44,-1
 508 453 l 1,45,-1
 508 266 l 1,46,-1
 460 266 l 1,47,-1
 460 220 l 1,48,-1
 367 220 l 1,49,-1
 367 266 l 1,50,-1
 321 266 l 1,51,-1
 321 313 l 1,52,-1
 274 313 l 1,53,-1
 274 266 l 1,54,-1
 181 266 l 1,55,-1
 181 313 l 1,56,-1
 135 313 l 1,57,-1
 135 407 l 1,58,-1
 181 407 l 1,59,-1
 181 453 l 1,60,-1
 228 453 l 1,61,-1
 228 500 l 1,62,-1
 321 500 l 1,63,-1
 321 453 l 1,32,-1
EndSplineSet
Validated: 5
EndChar

StartChar: A
Encoding: 65 65 35
Width: 550
Flags: W
LayerCount: 2
Fore
SplineSet
344.5 587 m 1,0,-1
 344.5 633 l 1,1,-1
 205.5 633 l 1,2,-1
 205.5 587 l 1,3,-1
 158.5 587 l 1,4,-1
 158.5 400 l 1,5,-1
 391.5 400 l 1,6,-1
 391.5 587 l 1,7,-1
 344.5 587 l 1,0,-1
205.5 633 m 1,8,-1
 205.5 680 l 1,9,-1
 344.5 680 l 1,10,-1
 344.5 633 l 1,11,-1
 391.5 633 l 1,12,-1
 391.5 587 l 1,13,-1
 437.5 587 l 1,14,-1
 437.5 121 l 1,15,-1
 391.5 121 l 1,16,-1
 391.5 353 l 1,17,-1
 158.5 353 l 1,18,-1
 158.5 121 l 1,19,-1
 112.5 121 l 1,20,-1
 112.5 587 l 1,21,-1
 158.5 587 l 1,22,-1
 158.5 633 l 1,23,-1
 205.5 633 l 1,8,-1
EndSplineSet
Validated: 524293
EndChar

StartChar: B
Encoding: 66 66 36
Width: 550
Flags: W
LayerCount: 2
Fore
SplineSet
344.5 353 m 1,0,-1
 344.5 400 l 1,1,-1
 158.5 400 l 1,2,-1
 158.5 168 l 1,3,-1
 344.5 168 l 1,4,-1
 344.5 214 l 1,5,-1
 391.5 214 l 1,6,-1
 391.5 353 l 1,7,-1
 344.5 353 l 1,0,-1
344.5 587 m 1,8,-1
 344.5 633 l 1,9,-1
 158.5 633 l 1,10,-1
 158.5 446 l 1,11,-1
 344.5 446 l 1,12,-1
 344.5 494 l 1,13,-1
 391.5 494 l 1,14,-1
 391.5 587 l 1,15,-1
 344.5 587 l 1,8,-1
112.5 121 m 1,16,-1
 112.5 680 l 1,17,-1
 344.5 680 l 1,18,-1
 344.5 633 l 1,19,-1
 391.5 633 l 1,20,-1
 391.5 587 l 1,21,-1
 437.5 587 l 1,22,-1
 437.5 494 l 1,23,-1
 391.5 494 l 1,24,-1
 391.5 446 l 1,25,-1
 344.5 446 l 1,26,-1
 344.5 400 l 1,27,-1
 391.5 400 l 1,28,-1
 391.5 353 l 1,29,-1
 437.5 353 l 1,30,-1
 437.5 214 l 1,31,-1
 391.5 214 l 1,32,-1
 391.5 168 l 1,33,-1
 344.5 168 l 1,34,-1
 344.5 121 l 1,35,-1
 112.5 121 l 1,16,-1
EndSplineSet
Validated: 524293
EndChar

StartChar: C
Encoding: 67 67 37
Width: 550
Flags: W
LayerCount: 2
Fore
SplineSet
391.5 214 m 1,0,-1
 391.5 168 l 1,1,-1
 344.5 168 l 1,2,-1
 344.5 121 l 1,3,-1
 205.5 121 l 1,4,-1
 205.5 168 l 1,5,-1
 158.5 168 l 1,6,-1
 158.5 214 l 1,7,-1
 112.5 214 l 1,8,-1
 112.5 587 l 1,9,-1
 158.5 587 l 1,10,-1
 158.5 633 l 1,11,-1
 205.5 633 l 1,12,-1
 205.5 680 l 1,13,-1
 344.5 680 l 1,14,-1
 344.5 633 l 1,15,-1
 391.5 633 l 1,16,-1
 391.5 587 l 1,17,-1
 344.5 587 l 1,18,-1
 344.5 633 l 1,19,-1
 205.5 633 l 1,20,-1
 205.5 587 l 1,21,-1
 158.5 587 l 1,22,-1
 158.5 214 l 1,23,-1
 205.5 214 l 1,24,-1
 205.5 168 l 1,25,-1
 344.5 168 l 1,26,-1
 344.5 214 l 1,27,-1
 391.5 214 l 1,0,-1
391.5 214 m 1,28,-1
 391.5 261 l 1,29,-1
 437.5 261 l 1,30,-1
 437.5 214 l 1,31,-1
 391.5 214 l 1,28,-1
391.5 587 m 1,32,-1
 437.5 587 l 1,33,-1
 437.5 540 l 1,34,-1
 391.5 540 l 1,35,-1
 391.5 587 l 1,32,-1
EndSplineSet
Validated: 524293
EndChar

StartChar: D
Encoding: 68 68 38
Width: 550
Flags: W
LayerCount: 2
Fore
SplineSet
344.5 587 m 1,0,-1
 344.5 633 l 1,1,-1
 158.5 633 l 1,2,-1
 158.5 168 l 1,3,-1
 344.5 168 l 1,4,-1
 344.5 214 l 1,5,-1
 391.5 214 l 1,6,-1
 391.5 587 l 1,7,-1
 344.5 587 l 1,0,-1
112.5 121 m 1,8,-1
 112.5 680 l 1,9,-1
 344.5 680 l 1,10,-1
 344.5 633 l 1,11,-1
 391.5 633 l 1,12,-1
 391.5 587 l 1,13,-1
 437.5 587 l 1,14,-1
 437.5 214 l 1,15,-1
 391.5 214 l 1,16,-1
 391.5 168 l 1,17,-1
 344.5 168 l 1,18,-1
 344.5 121 l 1,19,-1
 112.5 121 l 1,8,-1
EndSplineSet
Validated: 524293
EndChar

StartChar: E
Encoding: 69 69 39
Width: 550
Flags: W
LayerCount: 2
Fore
SplineSet
135.5 121 m 1,0,-1
 135.5 680 l 1,1,-1
 414.5 680 l 1,2,-1
 414.5 633 l 1,3,-1
 181.5 633 l 1,4,-1
 181.5 446 l 1,5,-1
 367.5 446 l 1,6,-1
 367.5 400 l 1,7,-1
 181.5 400 l 1,8,-1
 181.5 168 l 1,9,-1
 414.5 168 l 1,10,-1
 414.5 121 l 1,11,-1
 135.5 121 l 1,0,-1
EndSplineSet
Validated: 524289
EndChar

StartChar: F
Encoding: 70 70 40
Width: 550
Flags: W
LayerCount: 2
Fore
SplineSet
135.5 121 m 1,0,-1
 135.5 680 l 1,1,-1
 414.5 680 l 1,2,-1
 414.5 633 l 1,3,-1
 181.5 633 l 1,4,-1
 181.5 446 l 1,5,-1
 367.5 446 l 1,6,-1
 367.5 400 l 1,7,-1
 181.5 400 l 1,8,-1
 181.5 121 l 1,9,-1
 135.5 121 l 1,0,-1
EndSplineSet
Validated: 524289
EndChar

StartChar: G
Encoding: 71 71 41
Width: 550
Flags: W
LayerCount: 2
Fore
SplineSet
391.5 220 m 1,0,-1
 391.5 173 l 1,1,-1
 368.5 173 l 2,2,3
 351.5 173 351.5 173 348 170.5 c 128,-1,4
 344.5 168 344.5 168 344.5 151 c 0,5,6
 344.5 135 344.5 135 341.5 131 c 128,-1,7
 338.5 127 338.5 127 323.5 125 c 0,8,9
 298.5 121 298.5 121 253.5 121 c 2,10,-1
 205.5 121 l 1,11,-1
 205.5 168 l 1,12,-1
 158.5 168 l 1,13,-1
 158.5 214 l 1,14,-1
 112.5 214 l 1,15,-1
 112.5 587 l 1,16,-1
 158.5 587 l 1,17,-1
 158.5 639 l 1,18,-1
 205.5 639 l 1,19,-1
 205.5 685 l 1,20,-1
 344.5 685 l 1,21,-1
 344.5 639 l 1,22,-1
 205.5 639 l 1,23,-1
 205.5 616 l 2,24,25
 205.5 600 205.5 600 202 596 c 128,-1,26
 198.5 592 198.5 592 181.5 590 c 2,27,-1
 158.5 587 l 1,28,-1
 158.5 214 l 1,29,-1
 205.5 214 l 1,30,-1
 205.5 168 l 1,31,-1
 245.5 168 l 2,32,33
 290.5 168 290.5 168 315.5 171 c 2,34,-1
 344.5 175 l 1,35,-1
 344.5 198 l 2,36,37
 344.5 215 344.5 215 347.5 217.5 c 128,-1,38
 350.5 220 350.5 220 368.5 220 c 2,39,-1
 391.5 220 l 1,0,-1
391.5 220 m 1,40,-1
 391.5 407 l 1,41,-1
 298.5 407 l 1,42,-1
 298.5 453 l 1,43,-1
 437.5 453 l 1,44,-1
 437.5 220 l 1,45,-1
 391.5 220 l 1,40,-1
391.5 592 m 1,46,-1
 344.5 592 l 1,47,-1
 344.5 639 l 1,48,-1
 391.5 639 l 1,49,-1
 391.5 592 l 1,46,-1
391.5 592 m 1,50,-1
 437.5 592 l 1,51,-1
 437.5 546 l 1,52,-1
 391.5 546 l 1,53,-1
 391.5 592 l 1,50,-1
EndSplineSet
Validated: 524293
EndChar

StartChar: H
Encoding: 72 72 42
Width: 550
Flags: W
LayerCount: 2
Fore
SplineSet
112.5 127 m 1,0,-1
 112.5 685 l 1,1,-1
 158.5 685 l 1,2,-1
 158.5 453 l 1,3,-1
 391.5 453 l 1,4,-1
 391.5 685 l 1,5,-1
 437.5 685 l 1,6,-1
 437.5 127 l 1,7,-1
 391.5 127 l 1,8,-1
 391.5 407 l 1,9,-1
 158.5 407 l 1,10,-1
 158.5 127 l 1,11,-1
 112.5 127 l 1,0,-1
EndSplineSet
Validated: 524289
EndChar

StartChar: I
Encoding: 73 73 43
Width: 550
Flags: W
LayerCount: 2
Fore
SplineSet
158.5 639 m 1,0,-1
 158.5 685 l 1,1,-1
 391.5 685 l 1,2,-1
 391.5 639 l 1,3,-1
 298.5 639 l 1,4,-1
 298.5 173 l 1,5,-1
 391.5 173 l 1,6,-1
 391.5 127 l 1,7,-1
 158.5 127 l 1,8,-1
 158.5 173 l 1,9,-1
 252.5 173 l 1,10,-1
 252.5 639 l 1,11,-1
 158.5 639 l 1,0,-1
EndSplineSet
Validated: 524289
EndChar

StartChar: J
Encoding: 74 74 44
Width: 550
Flags: W
LayerCount: 2
Fore
SplineSet
205.5 627 m 1,0,-1
 205.5 674 l 1,1,-1
 437.5 674 l 1,2,-1
 437.5 627 l 1,3,-1
 344.5 627 l 1,4,-1
 344.5 162 l 1,5,-1
 298.5 162 l 1,6,-1
 298.5 115 l 1,7,-1
 158.5 115 l 1,8,-1
 158.5 162 l 1,9,-1
 298.5 162 l 1,10,-1
 298.5 627 l 1,11,-1
 205.5 627 l 1,0,-1
158.5 162 m 1,12,-1
 112.5 162 l 1,13,-1
 112.5 208 l 1,14,-1
 158.5 208 l 1,15,-1
 158.5 162 l 1,12,-1
EndSplineSet
Validated: 524293
EndChar

StartChar: K
Encoding: 75 75 45
Width: 550
Flags: W
LayerCount: 2
Fore
SplineSet
112.5 121 m 1,0,-1
 112.5 680 l 1,1,-1
 158.5 680 l 1,2,-1
 158.5 446 l 1,3,-1
 205.5 446 l 1,4,-1
 205.5 494 l 1,5,-1
 251.5 494 l 1,6,-1
 251.5 446 l 1,7,-1
 205.5 446 l 1,8,-1
 205.5 353 l 1,9,-1
 158.5 353 l 1,10,-1
 158.5 121 l 1,11,-1
 112.5 121 l 1,0,-1
391.5 168 m 1,12,-1
 344.5 168 l 1,13,-1
 344.5 214 l 1,14,-1
 298.5 214 l 1,15,-1
 298.5 261 l 1,16,-1
 251.5 261 l 1,17,-1
 251.5 307 l 1,18,-1
 205.5 307 l 1,19,-1
 205.5 353 l 1,20,-1
 251.5 353 l 1,21,-1
 251.5 307 l 1,22,-1
 298.5 307 l 1,23,-1
 298.5 261 l 1,24,-1
 344.5 261 l 1,25,-1
 344.5 214 l 1,26,-1
 391.5 214 l 1,27,-1
 391.5 168 l 1,12,-1
391.5 168 m 1,28,-1
 437.5 168 l 1,29,-1
 437.5 121 l 1,30,-1
 391.5 121 l 1,31,-1
 391.5 168 l 1,28,-1
391.5 633 m 1,32,-1
 391.5 587 l 1,33,-1
 344.5 587 l 1,34,-1
 344.5 540 l 1,35,-1
 298.5 540 l 1,36,-1
 298.5 494 l 1,37,-1
 251.5 494 l 1,38,-1
 251.5 540 l 1,39,-1
 298.5 540 l 1,40,-1
 298.5 587 l 1,41,-1
 344.5 587 l 1,42,-1
 344.5 633 l 1,43,-1
 391.5 633 l 1,32,-1
391.5 633 m 1,44,-1
 391.5 680 l 1,45,-1
 437.5 680 l 1,46,-1
 437.5 633 l 1,47,-1
 391.5 633 l 1,44,-1
EndSplineSet
Validated: 524293
EndChar

StartChar: L
Encoding: 76 76 46
Width: 550
Flags: W
LayerCount: 2
Fore
SplineSet
112.5 121 m 1,0,-1
 112.5 680 l 1,1,-1
 158.5 680 l 1,2,-1
 158.5 168 l 1,3,-1
 437.5 168 l 1,4,-1
 437.5 121 l 1,5,-1
 112.5 121 l 1,0,-1
EndSplineSet
Validated: 524289
EndChar

StartChar: M
Encoding: 77 77 47
Width: 550
Flags: W
LayerCount: 2
Fore
SplineSet
158.5 633 m 1,0,-1
 158.5 680 l 1,1,-1
 204.5 680 l 1,2,-1
 204.5 633 l 1,3,-1
 252.5 633 l 1,4,-1
 252.5 587 l 1,5,-1
 204.5 587 l 1,6,-1
 204.5 633 l 1,7,-1
 158.5 633 l 1,8,-1
 158.5 587 l 1,9,-1
 111.5 587 l 1,10,-1
 111.5 633 l 1,11,-1
 158.5 633 l 1,0,-1
111.5 587 m 1,12,-1
 111.5 121 l 1,13,-1
 65.5 121 l 1,14,-1
 65.5 587 l 1,15,-1
 111.5 587 l 1,12,-1
438.5 587 m 1,16,-1
 391.5 587 l 1,17,-1
 391.5 633 l 1,18,-1
 345.5 633 l 1,19,-1
 345.5 587 l 1,20,-1
 298.5 587 l 1,21,-1
 298.5 400 l 1,22,-1
 252.5 400 l 1,23,-1
 252.5 587 l 1,24,-1
 298.5 587 l 1,25,-1
 298.5 633 l 1,26,-1
 345.5 633 l 1,27,-1
 345.5 680 l 1,28,-1
 391.5 680 l 1,29,-1
 391.5 633 l 1,30,-1
 438.5 633 l 1,31,-1
 438.5 587 l 1,16,-1
438.5 587 m 1,32,-1
 484.5 587 l 1,33,-1
 484.5 121 l 1,34,-1
 438.5 121 l 1,35,-1
 438.5 587 l 1,32,-1
EndSplineSet
Validated: 524293
EndChar

StartChar: N
Encoding: 78 78 48
Width: 550
Flags: W
LayerCount: 2
Fore
SplineSet
88.5 121 m 1,0,-1
 88.5 680 l 1,1,-1
 181.5 680 l 1,2,-1
 181.5 587 l 1,3,-1
 134.5 587 l 1,4,-1
 134.5 121 l 1,5,-1
 88.5 121 l 1,0,-1
368.5 214 m 1,6,-1
 321.5 214 l 1,7,-1
 321.5 307 l 1,8,-1
 275.5 307 l 1,9,-1
 275.5 400 l 1,10,-1
 227.5 400 l 1,11,-1
 227.5 494 l 1,12,-1
 181.5 494 l 1,13,-1
 181.5 587 l 1,14,-1
 227.5 587 l 1,15,-1
 227.5 494 l 1,16,-1
 275.5 494 l 1,17,-1
 275.5 400 l 1,18,-1
 321.5 400 l 1,19,-1
 321.5 307 l 1,20,-1
 368.5 307 l 1,21,-1
 368.5 214 l 1,6,-1
368.5 214 m 1,22,-1
 414.5 214 l 1,23,-1
 414.5 680 l 1,24,-1
 461.5 680 l 1,25,-1
 461.5 121 l 1,26,-1
 368.5 121 l 1,27,-1
 368.5 214 l 1,22,-1
EndSplineSet
Validated: 524293
EndChar

StartChar: O
Encoding: 79 79 49
Width: 550
Flags: W
LayerCount: 2
Fore
SplineSet
391.5 587 m 1,0,-1
 391.5 633 l 1,1,-1
 158.5 633 l 1,2,-1
 158.5 587 l 1,3,-1
 111.5 587 l 1,4,-1
 111.5 214 l 1,5,-1
 158.5 214 l 1,6,-1
 158.5 168 l 1,7,-1
 391.5 168 l 1,8,-1
 391.5 214 l 1,9,-1
 438.5 214 l 1,10,-1
 438.5 587 l 1,11,-1
 391.5 587 l 1,0,-1
111.5 587 m 1,12,-1
 111.5 633 l 1,13,-1
 158.5 633 l 1,14,-1
 158.5 680 l 1,15,-1
 391.5 680 l 1,16,-1
 391.5 633 l 1,17,-1
 438.5 633 l 1,18,-1
 438.5 587 l 1,19,-1
 484.5 587 l 1,20,-1
 484.5 214 l 1,21,-1
 438.5 214 l 1,22,-1
 438.5 168 l 1,23,-1
 391.5 168 l 1,24,-1
 391.5 121 l 1,25,-1
 158.5 121 l 1,26,-1
 158.5 168 l 1,27,-1
 111.5 168 l 1,28,-1
 111.5 214 l 1,29,-1
 65.5 214 l 1,30,-1
 65.5 587 l 1,31,-1
 111.5 587 l 1,12,-1
EndSplineSet
Validated: 524293
EndChar

StartChar: P
Encoding: 80 80 50
Width: 550
Flags: W
LayerCount: 2
Fore
SplineSet
344.5 587 m 1,0,-1
 344.5 633 l 1,1,-1
 158.5 633 l 1,2,-1
 158.5 446 l 1,3,-1
 344.5 446 l 1,4,-1
 344.5 494 l 1,5,-1
 391.5 494 l 1,6,-1
 391.5 587 l 1,7,-1
 344.5 587 l 1,0,-1
112.5 121 m 1,8,-1
 112.5 680 l 1,9,-1
 344.5 680 l 1,10,-1
 344.5 633 l 1,11,-1
 391.5 633 l 1,12,-1
 391.5 587 l 1,13,-1
 437.5 587 l 1,14,-1
 437.5 494 l 1,15,-1
 391.5 494 l 1,16,-1
 391.5 446 l 1,17,-1
 344.5 446 l 1,18,-1
 344.5 400 l 1,19,-1
 158.5 400 l 1,20,-1
 158.5 121 l 1,21,-1
 112.5 121 l 1,8,-1
EndSplineSet
Validated: 524293
EndChar

StartChar: Q
Encoding: 81 81 51
Width: 550
Flags: W
LayerCount: 2
Fore
SplineSet
88 592 m 1,0,-1
 88 220 l 1,1,-1
 135 220 l 1,2,-1
 135 173 l 1,3,-1
 367 173 l 1,4,-1
 367 220 l 1,5,-1
 414 220 l 1,6,-1
 414 592 l 1,7,-1
 367 592 l 1,8,-1
 367 639 l 1,9,-1
 135 639 l 1,10,-1
 135 592 l 1,11,-1
 88 592 l 1,0,-1
88 592 m 1,12,-1
 88 639 l 1,13,-1
 135 639 l 1,14,-1
 135 685 l 1,15,-1
 367 685 l 1,16,-1
 367 639 l 1,17,-1
 414 639 l 1,18,-1
 414 592 l 1,19,-1
 460 592 l 1,20,-1
 460 220 l 1,21,-1
 414 220 l 1,22,-1
 414 173 l 1,23,-1
 367 173 l 1,24,-1
 367 127 l 1,25,-1
 135 127 l 1,26,-1
 135 173 l 1,27,-1
 88 173 l 1,28,-1
 88 220 l 1,29,-1
 42 220 l 1,30,-1
 42 592 l 1,31,-1
 88 592 l 1,12,-1
414 173 m 1,32,-1
 508 173 l 1,33,-1
 508 127 l 1,34,-1
 414 127 l 1,35,-1
 414 173 l 1,32,-1
EndSplineSet
Validated: 5
EndChar

StartChar: R
Encoding: 82 82 52
Width: 550
Flags: W
LayerCount: 2
Fore
SplineSet
112.5 127 m 1,0,-1
 112.5 685 l 1,1,-1
 344.5 685 l 1,2,-1
 344.5 639 l 1,3,-1
 158.5 639 l 1,4,-1
 158.5 453 l 1,5,-1
 344.5 453 l 1,6,-1
 344.5 500 l 1,7,-1
 391.5 500 l 1,8,-1
 391.5 592 l 1,9,-1
 344.5 592 l 1,10,-1
 344.5 639 l 1,11,-1
 391.5 639 l 1,12,-1
 391.5 592 l 1,13,-1
 437.5 592 l 1,14,-1
 437.5 500 l 1,15,-1
 391.5 500 l 1,16,-1
 391.5 453 l 1,17,-1
 344.5 453 l 1,18,-1
 344.5 407 l 1,19,-1
 158.5 407 l 1,20,-1
 158.5 127 l 1,21,-1
 112.5 127 l 1,0,-1
391.5 359 m 1,22,-1
 344.5 359 l 1,23,-1
 344.5 407 l 1,24,-1
 391.5 407 l 1,25,-1
 391.5 359 l 1,22,-1
391.5 359 m 1,26,-1
 437.5 359 l 1,27,-1
 437.5 127 l 1,28,-1
 391.5 127 l 1,29,-1
 391.5 359 l 1,26,-1
EndSplineSet
Validated: 524293
EndChar

StartChar: S
Encoding: 83 83 53
Width: 550
Flags: W
LayerCount: 2
Fore
SplineSet
111.5 216 m 1,0,-1
 157.5 216 l 1,1,-1
 157.5 170 l 1,2,-1
 392.5 170 l 1,3,-1
 392.5 216 l 1,4,-1
 439.5 216 l 1,5,-1
 439.5 357 l 1,6,-1
 392.5 357 l 1,7,-1
 392.5 403 l 1,8,-1
 157.5 403 l 1,9,-1
 157.5 451 l 1,10,-1
 111.5 451 l 1,11,-1
 111.5 498 l 1,12,-1
 64.5 498 l 1,13,-1
 64.5 591 l 1,14,-1
 111.5 591 l 1,15,-1
 111.5 638 l 1,16,-1
 157.5 638 l 1,17,-1
 157.5 685 l 1,18,-1
 392.5 685 l 1,19,-1
 392.5 638 l 1,20,-1
 157.5 638 l 1,21,-1
 157.5 591 l 1,22,-1
 111.5 591 l 1,23,-1
 111.5 498 l 1,24,-1
 157.5 498 l 1,25,-1
 157.5 451 l 1,26,-1
 392.5 451 l 1,27,-1
 392.5 403 l 1,28,-1
 439.5 403 l 1,29,-1
 439.5 357 l 1,30,-1
 485.5 357 l 1,31,-1
 485.5 216 l 1,32,-1
 439.5 216 l 1,33,-1
 439.5 170 l 1,34,-1
 392.5 170 l 1,35,-1
 392.5 123 l 1,36,-1
 157.5 123 l 1,37,-1
 157.5 170 l 1,38,-1
 111.5 170 l 1,39,-1
 111.5 216 l 1,0,-1
111.5 216 m 1,40,-1
 64.5 216 l 1,41,-1
 64.5 263 l 1,42,-1
 111.5 263 l 1,43,-1
 111.5 216 l 1,40,-1
439.5 591 m 1,44,-1
 392.5 591 l 1,45,-1
 392.5 638 l 1,46,-1
 439.5 638 l 1,47,-1
 439.5 591 l 1,44,-1
439.5 591 m 1,48,-1
 485.5 591 l 1,49,-1
 485.5 544 l 1,50,-1
 439.5 544 l 1,51,-1
 439.5 591 l 1,48,-1
EndSplineSet
Validated: 524293
EndChar

StartChar: T
Encoding: 84 84 54
Width: 550
Flags: W
LayerCount: 2
Fore
SplineSet
114.5 638 m 1,0,-1
 114.5 685 l 1,1,-1
 435.5 685 l 1,2,-1
 435.5 638 l 1,3,-1
 301.5 638 l 1,4,-1
 301.5 123 l 1,5,-1
 254.5 123 l 1,6,-1
 254.5 638 l 1,7,-1
 114.5 638 l 1,0,-1
EndSplineSet
Validated: 524289
EndChar

StartChar: U
Encoding: 85 85 55
Width: 550
Flags: W
LayerCount: 2
Fore
SplineSet
111.5 123 m 1,0,-1
 111.5 685 l 1,1,-1
 158.5 685 l 1,2,-1
 158.5 170 l 1,3,-1
 391.5 170 l 1,4,-1
 391.5 685 l 1,5,-1
 438.5 685 l 1,6,-1
 438.5 123 l 1,7,-1
 111.5 123 l 1,0,-1
EndSplineSet
Validated: 524289
EndChar

StartChar: V
Encoding: 86 86 56
Width: 550
Flags: W
LayerCount: 2
Fore
SplineSet
64.5 544 m 1,0,-1
 64.5 685 l 1,1,-1
 111.5 685 l 1,2,-1
 111.5 544 l 1,3,-1
 64.5 544 l 1,0,-1
439.5 544 m 1,4,-1
 439.5 451 l 1,5,-1
 392.5 451 l 1,6,-1
 392.5 310 l 1,7,-1
 345.5 310 l 1,8,-1
 345.5 216 l 1,9,-1
 299.5 216 l 1,10,-1
 299.5 123 l 1,11,-1
 252.5 123 l 1,12,-1
 252.5 216 l 1,13,-1
 204.5 216 l 1,14,-1
 204.5 310 l 1,15,-1
 157.5 310 l 1,16,-1
 157.5 451 l 1,17,-1
 111.5 451 l 1,18,-1
 111.5 544 l 1,19,-1
 157.5 544 l 1,20,-1
 157.5 451 l 1,21,-1
 204.5 451 l 1,22,-1
 204.5 310 l 1,23,-1
 252.5 310 l 1,24,-1
 252.5 216 l 1,25,-1
 299.5 216 l 1,26,-1
 299.5 310 l 1,27,-1
 345.5 310 l 1,28,-1
 345.5 451 l 1,29,-1
 392.5 451 l 1,30,-1
 392.5 544 l 1,31,-1
 439.5 544 l 1,4,-1
439.5 544 m 1,32,-1
 439.5 685 l 1,33,-1
 485.5 685 l 1,34,-1
 485.5 544 l 1,35,-1
 439.5 544 l 1,32,-1
EndSplineSet
Validated: 524293
EndChar

StartChar: W
Encoding: 87 87 57
Width: 550
Flags: W
LayerCount: 2
Fore
SplineSet
64.5 170 m 1,0,-1
 64.5 685 l 1,1,-1
 111.5 685 l 1,2,-1
 111.5 170 l 1,3,-1
 64.5 170 l 1,0,-1
439.5 170 m 1,4,-1
 439.5 123 l 1,5,-1
 345.5 123 l 1,6,-1
 345.5 170 l 1,7,-1
 299.5 170 l 1,8,-1
 299.5 216 l 1,9,-1
 252.5 216 l 1,10,-1
 252.5 170 l 1,11,-1
 204.5 170 l 1,12,-1
 204.5 123 l 1,13,-1
 111.5 123 l 1,14,-1
 111.5 170 l 1,15,-1
 204.5 170 l 1,16,-1
 204.5 216 l 1,17,-1
 252.5 216 l 1,18,-1
 252.5 403 l 1,19,-1
 299.5 403 l 1,20,-1
 299.5 216 l 1,21,-1
 345.5 216 l 1,22,-1
 345.5 170 l 1,23,-1
 439.5 170 l 1,4,-1
439.5 170 m 1,24,-1
 439.5 685 l 1,25,-1
 485.5 685 l 1,26,-1
 485.5 170 l 1,27,-1
 439.5 170 l 1,24,-1
EndSplineSet
Validated: 524293
EndChar

StartChar: X
Encoding: 88 88 58
Width: 550
Flags: W
LayerCount: 2
Fore
SplineSet
17.5 638 m 1,0,-1
 17.5 685 l 1,1,-1
 64.5 685 l 1,2,-1
 64.5 638 l 1,3,-1
 17.5 638 l 1,0,-1
64.5 170 m 1,4,-1
 64.5 216 l 1,5,-1
 110.5 216 l 1,6,-1
 110.5 263 l 1,7,-1
 157.5 263 l 1,8,-1
 157.5 310 l 1,9,-1
 204.5 310 l 1,10,-1
 204.5 357 l 1,11,-1
 252.5 357 l 1,12,-1
 252.5 451 l 1,13,-1
 204.5 451 l 1,14,-1
 204.5 498 l 1,15,-1
 157.5 498 l 1,16,-1
 157.5 544 l 1,17,-1
 110.5 544 l 1,18,-1
 110.5 591 l 1,19,-1
 64.5 591 l 1,20,-1
 64.5 638 l 1,21,-1
 110.5 638 l 1,22,-1
 110.5 591 l 1,23,-1
 157.5 591 l 1,24,-1
 157.5 544 l 1,25,-1
 204.5 544 l 1,26,-1
 204.5 498 l 1,27,-1
 252.5 498 l 1,28,-1
 252.5 451 l 1,29,-1
 298.5 451 l 1,30,-1
 298.5 498 l 1,31,-1
 345.5 498 l 1,32,-1
 345.5 451 l 1,33,-1
 298.5 451 l 1,34,-1
 298.5 357 l 1,35,-1
 252.5 357 l 1,36,-1
 252.5 310 l 1,37,-1
 204.5 310 l 1,38,-1
 204.5 263 l 1,39,-1
 157.5 263 l 1,40,-1
 157.5 216 l 1,41,-1
 110.5 216 l 1,42,-1
 110.5 170 l 1,43,-1
 64.5 170 l 1,4,-1
64.5 170 m 1,44,-1
 64.5 123 l 1,45,-1
 17.5 123 l 1,46,-1
 17.5 170 l 1,47,-1
 64.5 170 l 1,44,-1
485.5 170 m 1,48,-1
 438.5 170 l 1,49,-1
 438.5 216 l 1,50,-1
 392.5 216 l 1,51,-1
 392.5 263 l 1,52,-1
 345.5 263 l 1,53,-1
 345.5 310 l 1,54,-1
 298.5 310 l 1,55,-1
 298.5 357 l 1,56,-1
 345.5 357 l 1,57,-1
 345.5 310 l 1,58,-1
 392.5 310 l 1,59,-1
 392.5 263 l 1,60,-1
 438.5 263 l 1,61,-1
 438.5 216 l 1,62,-1
 485.5 216 l 1,63,-1
 485.5 170 l 1,48,-1
485.5 170 m 1,64,-1
 532.5 170 l 1,65,-1
 532.5 123 l 1,66,-1
 485.5 123 l 1,67,-1
 485.5 170 l 1,64,-1
485.5 638 m 1,68,-1
 485.5 591 l 1,69,-1
 438.5 591 l 1,70,-1
 438.5 544 l 1,71,-1
 392.5 544 l 1,72,-1
 392.5 498 l 1,73,-1
 345.5 498 l 1,74,-1
 345.5 544 l 1,75,-1
 392.5 544 l 1,76,-1
 392.5 591 l 1,77,-1
 438.5 591 l 1,78,-1
 438.5 638 l 1,79,-1
 485.5 638 l 1,68,-1
485.5 638 m 1,80,-1
 485.5 685 l 1,81,-1
 532.5 685 l 1,82,-1
 532.5 638 l 1,83,-1
 485.5 638 l 1,80,-1
EndSplineSet
Validated: 524293
EndChar

StartChar: Y
Encoding: 89 89 59
Width: 550
Flags: W
LayerCount: 2
Fore
SplineSet
111.5 451 m 1,0,-1
 111.5 685 l 1,1,-1
 158.5 685 l 1,2,-1
 158.5 451 l 1,3,-1
 111.5 451 l 1,0,-1
391.5 451 m 1,4,-1
 391.5 403 l 1,5,-1
 345.5 403 l 1,6,-1
 345.5 357 l 1,7,-1
 298.5 357 l 1,8,-1
 298.5 123 l 1,9,-1
 251.5 123 l 1,10,-1
 251.5 357 l 1,11,-1
 204.5 357 l 1,12,-1
 204.5 403 l 1,13,-1
 158.5 403 l 1,14,-1
 158.5 451 l 1,15,-1
 204.5 451 l 1,16,-1
 204.5 403 l 1,17,-1
 345.5 403 l 1,18,-1
 345.5 451 l 1,19,-1
 391.5 451 l 1,4,-1
391.5 451 m 1,20,-1
 391.5 685 l 1,21,-1
 438.5 685 l 1,22,-1
 438.5 451 l 1,23,-1
 391.5 451 l 1,20,-1
EndSplineSet
Validated: 524293
EndChar

StartChar: Z
Encoding: 90 90 60
Width: 550
Flags: W
LayerCount: 2
Fore
SplineSet
41 644 m 1,0,-1
 41 690 l 1,1,-1
 509 690 l 1,2,-1
 509 597 l 1,3,-1
 461 597 l 1,4,-1
 461 644 l 1,5,-1
 41 644 l 1,0,-1
134 269 m 1,6,-1
 134 316 l 1,7,-1
 181 316 l 1,8,-1
 181 362 l 1,9,-1
 228 362 l 1,10,-1
 228 410 l 1,11,-1
 275 410 l 1,12,-1
 275 457 l 1,13,-1
 321 457 l 1,14,-1
 321 503 l 1,15,-1
 368 503 l 1,16,-1
 368 550 l 1,17,-1
 415 550 l 1,18,-1
 415 597 l 1,19,-1
 461 597 l 1,20,-1
 461 550 l 1,21,-1
 415 550 l 1,22,-1
 415 503 l 1,23,-1
 368 503 l 1,24,-1
 368 457 l 1,25,-1
 321 457 l 1,26,-1
 321 410 l 1,27,-1
 275 410 l 1,28,-1
 275 362 l 1,29,-1
 228 362 l 1,30,-1
 228 316 l 1,31,-1
 181 316 l 1,32,-1
 181 269 l 1,33,-1
 134 269 l 1,6,-1
134 269 m 1,34,-1
 134 222 l 1,35,-1
 88 222 l 1,36,-1
 88 175 l 1,37,-1
 509 175 l 1,38,-1
 509 129 l 1,39,-1
 310 129 l 2,40,41
 115 129 115 129 76 125 c 2,42,-1
 41 121 l 1,43,-1
 41 216 l 1,44,-1
 64 220 l 2,45,46
 80 222 80 222 84 226 c 128,-1,47
 88 230 88 230 88 247 c 0,48,49
 88 264 88 264 91 266.5 c 128,-1,50
 94 269 94 269 111 269 c 2,51,-1
 134 269 l 1,34,-1
EndSplineSet
Validated: 5
EndChar

StartChar: bracketleft
Encoding: 91 91 61
Width: 550
Flags: W
LayerCount: 2
Fore
SplineSet
204.5 82 m 1,0,-1
 204.5 737 l 1,1,-1
 345.5 737 l 1,2,-1
 345.5 690 l 1,3,-1
 252.5 690 l 1,4,-1
 252.5 129 l 1,5,-1
 345.5 129 l 1,6,-1
 345.5 82 l 1,7,-1
 204.5 82 l 1,0,-1
EndSplineSet
Validated: 524289
EndChar

StartChar: backslash
Encoding: 92 92 62
Width: 550
Flags: W
LayerCount: 2
Fore
SplineSet
135.5 587 m 1,0,-1
 135.5 680 l 1,1,-1
 181.5 680 l 1,2,-1
 181.5 587 l 1,3,-1
 135.5 587 l 1,0,-1
367.5 214 m 1,4,-1
 321.5 214 l 1,5,-1
 321.5 307 l 1,6,-1
 274.5 307 l 1,7,-1
 274.5 400 l 1,8,-1
 228.5 400 l 1,9,-1
 228.5 494 l 1,10,-1
 181.5 494 l 1,11,-1
 181.5 587 l 1,12,-1
 228.5 587 l 1,13,-1
 228.5 494 l 1,14,-1
 274.5 494 l 1,15,-1
 274.5 400 l 1,16,-1
 321.5 400 l 1,17,-1
 321.5 307 l 1,18,-1
 367.5 307 l 1,19,-1
 367.5 214 l 1,4,-1
367.5 214 m 1,20,-1
 414.5 214 l 1,21,-1
 414.5 121 l 1,22,-1
 367.5 121 l 1,23,-1
 367.5 214 l 1,20,-1
EndSplineSet
Validated: 524293
EndChar

StartChar: bracketright
Encoding: 93 93 63
Width: 550
Flags: W
LayerCount: 2
Fore
SplineSet
205.5 680 m 1,0,-1
 205.5 726 l 1,1,-1
 344.5 726 l 1,2,-1
 344.5 75 l 1,3,-1
 205.5 75 l 1,4,-1
 205.5 121 l 1,5,-1
 298.5 121 l 1,6,-1
 298.5 680 l 1,7,-1
 205.5 680 l 1,0,-1
EndSplineSet
Validated: 524289
EndChar

StartChar: asciicircum
Encoding: 94 94 64
Width: 550
Flags: W
LayerCount: 2
Fore
SplineSet
196.5 587 m 1,0,-1
 196.5 633 l 1,1,-1
 242.5 633 l 1,2,-1
 242.5 680 l 1,3,-1
 289.5 680 l 1,4,-1
 289.5 633 l 1,5,-1
 336.5 633 l 1,6,-1
 336.5 587 l 1,7,-1
 289.5 587 l 1,8,-1
 289.5 633 l 1,9,-1
 242.5 633 l 1,10,-1
 242.5 587 l 1,11,-1
 196.5 587 l 1,0,-1
196.5 587 m 1,12,-1
 196.5 540 l 1,13,-1
 149.5 540 l 1,14,-1
 149.5 517 l 2,15,16
 149.5 502 149.5 502 147.5 498 c 128,-1,17
 145.5 494 145.5 494 135.5 494 c 0,18,19
 126.5 494 126.5 494 123.5 498 c 128,-1,20
 120.5 502 120.5 502 120.5 517 c 128,-1,21
 120.5 532 120.5 532 123.5 536 c 128,-1,22
 126.5 540 126.5 540 135.5 540 c 0,23,24
 145.5 540 145.5 540 147.5 544 c 128,-1,25
 149.5 548 149.5 548 149.5 563 c 2,26,-1
 149.5 587 l 1,27,-1
 196.5 587 l 1,12,-1
383.5 540 m 1,28,-1
 336.5 540 l 1,29,-1
 336.5 587 l 1,30,-1
 383.5 587 l 1,31,-1
 383.5 540 l 1,28,-1
383.5 540 m 1,32,-1
 429.5 540 l 1,33,-1
 429.5 494 l 1,34,-1
 383.5 494 l 1,35,-1
 383.5 540 l 1,32,-1
EndSplineSet
Validated: 524293
EndChar

StartChar: underscore
Encoding: 95 95 65
Width: 550
Flags: W
LayerCount: 2
Fore
SplineSet
88.5 75 m 1,0,-1
 88.5 121 l 1,1,-1
 461.5 121 l 1,2,-1
 461.5 75 l 1,3,-1
 88.5 75 l 1,0,-1
EndSplineSet
Validated: 524289
EndChar

StartChar: grave
Encoding: 96 96 66
Width: 550
Flags: W
LayerCount: 2
Fore
SplineSet
228.5 592 m 1,0,-1
 228.5 639 l 1,1,-1
 274.5 639 l 1,2,-1
 274.5 592 l 1,3,-1
 228.5 592 l 1,0,-1
274.5 592 m 1,4,-1
 321.5 592 l 1,5,-1
 321.5 546 l 1,6,-1
 274.5 546 l 1,7,-1
 274.5 592 l 1,4,-1
EndSplineSet
Validated: 524293
EndChar

StartChar: a
Encoding: 97 97 67
Width: 550
Flags: W
LayerCount: 2
Fore
SplineSet
181.5 173 m 1,0,-1
 274.5 173 l 1,1,-1
 274.5 220 l 1,2,-1
 321.5 220 l 1,3,-1
 321.5 266 l 1,4,-1
 367.5 266 l 1,5,-1
 367.5 407 l 1,6,-1
 181.5 407 l 1,7,-1
 181.5 173 l 1,0,-1
181.5 173 m 1,8,-1
 135.5 173 l 1,9,-1
 135.5 407 l 1,10,-1
 181.5 407 l 1,11,-1
 181.5 453 l 1,12,-1
 367.5 453 l 1,13,-1
 367.5 407 l 1,14,-1
 414.5 407 l 1,15,-1
 414.5 127 l 1,16,-1
 367.5 127 l 1,17,-1
 367.5 220 l 1,18,-1
 321.5 220 l 1,19,-1
 321.5 173 l 1,20,-1
 274.5 173 l 1,21,-1
 274.5 127 l 1,22,-1
 181.5 127 l 1,23,-1
 181.5 173 l 1,8,-1
EndSplineSet
Validated: 524293
EndChar

StartChar: b
Encoding: 98 98 68
Width: 550
Flags: W
LayerCount: 2
Fore
SplineSet
135.5 173 m 1,0,-1
 135.5 639 l 1,1,-1
 181.5 639 l 1,2,-1
 181.5 407 l 1,3,-1
 228.5 407 l 1,4,-1
 228.5 453 l 1,5,-1
 367.5 453 l 1,6,-1
 367.5 407 l 1,7,-1
 228.5 407 l 1,8,-1
 228.5 359 l 1,9,-1
 181.5 359 l 1,10,-1
 181.5 173 l 1,11,-1
 367.5 173 l 1,12,-1
 367.5 407 l 1,13,-1
 414.5 407 l 1,14,-1
 414.5 173 l 1,15,-1
 367.5 173 l 1,16,-1
 367.5 127 l 1,17,-1
 181.5 127 l 1,18,-1
 181.5 173 l 1,19,-1
 135.5 173 l 1,0,-1
EndSplineSet
Validated: 524293
EndChar

StartChar: c
Encoding: 99 99 69
Width: 550
Flags: W
LayerCount: 2
Fore
SplineSet
367.5 173 m 1,0,-1
 367.5 127 l 1,1,-1
 181.5 127 l 1,2,-1
 181.5 173 l 1,3,-1
 135.5 173 l 1,4,-1
 135.5 407 l 1,5,-1
 181.5 407 l 1,6,-1
 181.5 173 l 1,7,-1
 367.5 173 l 1,0,-1
367.5 173 m 1,8,-1
 367.5 220 l 1,9,-1
 414.5 220 l 1,10,-1
 414.5 173 l 1,11,-1
 367.5 173 l 1,8,-1
367.5 404 m 1,12,-1
 391.5 408 l 1,13,-1
 414.5 410 l 1,14,-1
 414.5 359 l 1,15,-1
 367.5 359 l 1,16,-1
 367.5 404 l 1,12,-1
367.5 407 m 1,17,-1
 181.5 407 l 1,18,-1
 181.5 453 l 1,19,-1
 367.5 453 l 1,20,-1
 367.5 407 l 1,17,-1
EndSplineSet
Validated: 524293
EndChar

StartChar: d
Encoding: 100 100 70
Width: 550
Flags: W
LayerCount: 2
Fore
SplineSet
391.5 412 m 1,0,-1
 391.5 645 l 1,1,-1
 437.5 645 l 1,2,-1
 437.5 179 l 1,3,-1
 391.5 179 l 1,4,-1
 391.5 366 l 1,5,-1
 344.5 366 l 1,6,-1
 344.5 412 l 1,7,-1
 158.5 412 l 1,8,-1
 158.5 179 l 1,9,-1
 391.5 179 l 1,10,-1
 391.5 133 l 1,11,-1
 158.5 133 l 1,12,-1
 158.5 179 l 1,13,-1
 112.5 179 l 1,14,-1
 112.5 412 l 1,15,-1
 158.5 412 l 1,16,-1
 158.5 459 l 1,17,-1
 344.5 459 l 1,18,-1
 344.5 412 l 1,19,-1
 391.5 412 l 1,0,-1
EndSplineSet
Validated: 524293
EndChar

StartChar: e
Encoding: 101 101 71
Width: 550
Flags: W
LayerCount: 2
Fore
SplineSet
367.5 173 m 1,0,-1
 367.5 127 l 1,1,-1
 181.5 127 l 1,2,-1
 181.5 173 l 1,3,-1
 135.5 173 l 1,4,-1
 135.5 407 l 1,5,-1
 181.5 407 l 1,6,-1
 181.5 313 l 1,7,-1
 367.5 313 l 1,8,-1
 367.5 407 l 1,9,-1
 181.5 407 l 1,10,-1
 181.5 453 l 1,11,-1
 367.5 453 l 1,12,-1
 367.5 407 l 1,13,-1
 414.5 407 l 1,14,-1
 414.5 313 l 1,15,-1
 367.5 313 l 1,16,-1
 367.5 266 l 1,17,-1
 181.5 266 l 1,18,-1
 181.5 173 l 1,19,-1
 367.5 173 l 1,0,-1
367.5 173 m 1,20,-1
 367.5 220 l 1,21,-1
 414.5 220 l 1,22,-1
 414.5 173 l 1,23,-1
 367.5 173 l 1,20,-1
EndSplineSet
Validated: 524293
EndChar

StartChar: f
Encoding: 102 102 72
Width: 550
Flags: W
LayerCount: 2
Fore
SplineSet
275.5 592 m 1,0,-1
 275.5 639 l 1,1,-1
 368.5 639 l 1,2,-1
 368.5 592 l 1,3,-1
 275.5 592 l 1,4,-1
 275.5 453 l 1,5,-1
 368.5 453 l 1,6,-1
 368.5 407 l 1,7,-1
 275.5 407 l 1,8,-1
 275.5 127 l 1,9,-1
 227.5 127 l 1,10,-1
 227.5 407 l 1,11,-1
 181.5 407 l 1,12,-1
 181.5 453 l 1,13,-1
 227.5 453 l 1,14,-1
 227.5 592 l 1,15,-1
 275.5 592 l 1,0,-1
EndSplineSet
Validated: 524293
EndChar

StartChar: g
Encoding: 103 103 73
Width: 550
Flags: W
LayerCount: 2
Fore
SplineSet
321.5 220 m 1,0,-1
 321.5 266 l 1,1,-1
 367.5 266 l 1,2,-1
 367.5 407 l 1,3,-1
 181.5 407 l 1,4,-1
 181.5 220 l 1,5,-1
 321.5 220 l 1,0,-1
321.5 220 m 1,6,-1
 321.5 173 l 1,7,-1
 181.5 173 l 1,8,-1
 181.5 220 l 1,9,-1
 135.5 220 l 1,10,-1
 135.5 407 l 1,11,-1
 181.5 407 l 1,12,-1
 181.5 453 l 1,13,-1
 367.5 453 l 1,14,-1
 367.5 407 l 1,15,-1
 414.5 407 l 1,16,-1
 414.5 34 l 1,17,-1
 367.5 34 l 1,18,-1
 367.5 220 l 1,19,-1
 321.5 220 l 1,6,-1
181.5 34 m 1,20,-1
 367.5 34 l 1,21,-1
 367.5 -12 l 1,22,-1
 181.5 -12 l 1,23,-1
 181.5 34 l 1,20,-1
181.5 34 m 1,24,-1
 135.5 34 l 1,25,-1
 135.5 80 l 1,26,-1
 181.5 80 l 1,27,-1
 181.5 34 l 1,24,-1
EndSplineSet
Validated: 524293
EndChar

StartChar: h
Encoding: 104 104 74
Width: 550
Flags: W
LayerCount: 2
Fore
SplineSet
115.5 515 m 2,0,-1
 115.5 639 l 1,1,-1
 161.5 639 l 1,2,-1
 161.5 407 l 1,3,-1
 208.5 407 l 1,4,-1
 208.5 453 l 1,5,-1
 394.5 453 l 1,6,-1
 394.5 429 l 2,7,8
 394.5 413 394.5 413 397.5 410 c 128,-1,9
 400.5 407 400.5 407 415.5 407 c 2,10,-1
 434.5 407 l 1,11,-1
 434.5 127 l 1,12,-1
 394.5 127 l 1,13,-1
 394.5 407 l 1,14,-1
 208.5 407 l 1,15,-1
 208.5 359 l 1,16,-1
 160.5 359 l 1,17,18
 162.5 320 162.5 320 164.5 243 c 128,-1,19
 166.5 166 166.5 166 168.5 127 c 1,20,-1
 122.5 127 l 1,21,-1
 119.5 259 l 2,22,23
 115.5 402 115.5 402 115.5 515 c 2,0,-1
EndSplineSet
Validated: 524293
EndChar

StartChar: i
Encoding: 105 105 75
Width: 550
Flags: W
LayerCount: 2
Fore
SplineSet
252 127 m 1,0,-1
 252 453 l 1,1,-1
 298 453 l 1,2,-1
 298 127 l 1,3,-1
 252 127 l 1,0,-1
252 546 m 1,4,-1
 252 639 l 1,5,-1
 298 639 l 1,6,-1
 298 546 l 1,7,-1
 252 546 l 1,4,-1
EndSplineSet
Validated: 1
EndChar

StartChar: j
Encoding: 106 106 76
Width: 550
Flags: W
LayerCount: 2
Fore
SplineSet
345.5 546 m 1,0,-1
 345.5 639 l 1,1,-1
 391.5 639 l 1,2,-1
 391.5 546 l 1,3,-1
 345.5 546 l 1,0,-1
204.5 34 m 1,4,-1
 345.5 34 l 1,5,-1
 345.5 453 l 1,6,-1
 391.5 453 l 1,7,-1
 391.5 34 l 1,8,-1
 345.5 34 l 1,9,-1
 345.5 -12 l 1,10,-1
 204.5 -12 l 1,11,-1
 204.5 34 l 1,4,-1
204.5 34 m 1,12,-1
 158.5 34 l 1,13,-1
 158.5 127 l 1,14,-1
 204.5 127 l 1,15,-1
 204.5 34 l 1,12,-1
EndSplineSet
Validated: 524293
EndChar

StartChar: k
Encoding: 107 107 77
Width: 550
Flags: W
LayerCount: 2
Fore
SplineSet
158.5 127 m 1,0,-1
 158.5 639 l 1,1,-1
 204.5 639 l 1,2,-1
 204.5 407 l 1,3,-1
 298.5 407 l 1,4,-1
 298.5 313 l 1,5,-1
 252.5 313 l 1,6,-1
 252.5 359 l 1,7,-1
 204.5 359 l 1,8,-1
 204.5 127 l 1,9,-1
 158.5 127 l 1,0,-1
345.5 220 m 1,10,-1
 298.5 220 l 1,11,-1
 298.5 313 l 1,12,-1
 345.5 313 l 1,13,-1
 345.5 220 l 1,10,-1
345.5 220 m 1,14,-1
 391.5 220 l 1,15,-1
 391.5 127 l 1,16,-1
 345.5 127 l 1,17,-1
 345.5 220 l 1,14,-1
298.5 407 m 1,18,-1
 298.5 453 l 1,19,-1
 391.5 453 l 1,20,-1
 391.5 407 l 1,21,-1
 298.5 407 l 1,18,-1
EndSplineSet
Validated: 524293
EndChar

StartChar: l
Encoding: 108 108 78
Width: 550
Flags: W
LayerCount: 2
Fore
SplineSet
181.5 592 m 1,0,-1
 181.5 639 l 1,1,-1
 275.5 639 l 1,2,-1
 275.5 173 l 1,3,-1
 321.5 173 l 1,4,-1
 321.5 127 l 1,5,-1
 227.5 127 l 1,6,-1
 227.5 592 l 1,7,-1
 181.5 592 l 1,0,-1
321.5 173 m 1,8,-1
 321.5 220 l 1,9,-1
 368.5 220 l 1,10,-1
 368.5 173 l 1,11,-1
 321.5 173 l 1,8,-1
EndSplineSet
Validated: 524293
EndChar

StartChar: m
Encoding: 109 109 79
Width: 550
Flags: W
LayerCount: 2
Fore
SplineSet
438.5 412 m 1,0,-1
 298.5 412 l 1,1,-1
 298.5 133 l 1,2,-1
 252.5 133 l 1,3,-1
 252.5 412 l 1,4,-1
 111.5 412 l 1,5,-1
 111.5 133 l 1,6,-1
 65.5 133 l 1,7,-1
 65.5 412 l 1,8,-1
 111.5 412 l 1,9,-1
 111.5 459 l 1,10,-1
 252.5 459 l 1,11,-1
 252.5 412 l 1,12,-1
 298.5 412 l 1,13,-1
 298.5 459 l 1,14,-1
 438.5 459 l 1,15,-1
 438.5 412 l 1,0,-1
438.5 412 m 1,16,-1
 484.5 412 l 1,17,-1
 484.5 133 l 1,18,-1
 438.5 133 l 1,19,-1
 438.5 412 l 1,16,-1
EndSplineSet
Validated: 524293
EndChar

StartChar: n
Encoding: 110 110 80
Width: 550
Flags: W
LayerCount: 2
Fore
SplineSet
181.5 400 m 1,0,-1
 181.5 121 l 1,1,-1
 135.5 121 l 1,2,-1
 135.5 400 l 1,3,-1
 181.5 400 l 1,0,-1
181.5 400 m 1,4,-1
 181.5 446 l 1,5,-1
 367.5 446 l 1,6,-1
 367.5 400 l 1,7,-1
 414.5 400 l 1,8,-1
 414.5 121 l 1,9,-1
 367.5 121 l 1,10,-1
 367.5 400 l 1,11,-1
 181.5 400 l 1,4,-1
EndSplineSet
Validated: 524293
EndChar

StartChar: o
Encoding: 111 111 81
Width: 550
Flags: W
LayerCount: 2
Fore
SplineSet
181.5 168 m 1,0,-1
 367.5 168 l 1,1,-1
 367.5 400 l 1,2,-1
 181.5 400 l 1,3,-1
 181.5 168 l 1,0,-1
181.5 168 m 1,4,-1
 135.5 168 l 1,5,-1
 135.5 400 l 1,6,-1
 181.5 400 l 1,7,-1
 181.5 446 l 1,8,-1
 367.5 446 l 1,9,-1
 367.5 400 l 1,10,-1
 414.5 400 l 1,11,-1
 414.5 168 l 1,12,-1
 367.5 168 l 1,13,-1
 367.5 121 l 1,14,-1
 181.5 121 l 1,15,-1
 181.5 168 l 1,4,-1
EndSplineSet
Validated: 524293
EndChar

StartChar: p
Encoding: 112 112 82
Width: 550
Flags: W
LayerCount: 2
Fore
SplineSet
367.5 168 m 1,0,-1
 367.5 400 l 1,1,-1
 181.5 400 l 1,2,-1
 181.5 168 l 1,3,-1
 367.5 168 l 1,0,-1
367.5 168 m 1,4,-1
 367.5 121 l 1,5,-1
 181.5 121 l 1,6,-1
 181.5 -18 l 1,7,-1
 135.5 -18 l 1,8,-1
 135.5 400 l 1,9,-1
 181.5 400 l 1,10,-1
 181.5 446 l 1,11,-1
 367.5 446 l 1,12,-1
 367.5 400 l 1,13,-1
 414.5 400 l 1,14,-1
 414.5 168 l 1,15,-1
 367.5 168 l 1,4,-1
EndSplineSet
Validated: 524293
EndChar

StartChar: q
Encoding: 113 113 83
Width: 550
Flags: W
LayerCount: 2
Fore
SplineSet
321.5 168 m 1,0,-1
 321.5 400 l 1,1,-1
 134.5 400 l 1,2,-1
 134.5 168 l 1,3,-1
 321.5 168 l 1,0,-1
134.5 168 m 1,4,-1
 88.5 168 l 1,5,-1
 88.5 400 l 1,6,-1
 134.5 400 l 1,7,-1
 134.5 446 l 1,8,-1
 321.5 446 l 1,9,-1
 321.5 400 l 1,10,-1
 368.5 400 l 1,11,-1
 368.5 28 l 1,12,-1
 414.5 28 l 1,13,-1
 414.5 -18 l 1,14,-1
 321.5 -18 l 1,15,-1
 321.5 121 l 1,16,-1
 134.5 121 l 1,17,-1
 134.5 168 l 1,4,-1
414.5 28 m 1,18,-1
 414.5 75 l 1,19,-1
 461.5 75 l 1,20,-1
 461.5 28 l 1,21,-1
 414.5 28 l 1,18,-1
EndSplineSet
Validated: 524293
EndChar

StartChar: r
Encoding: 114 114 84
Width: 550
Flags: W
LayerCount: 2
Fore
SplineSet
181.5 400 m 1,0,-1
 181.5 121 l 1,1,-1
 135.5 121 l 1,2,-1
 135.5 400 l 1,3,-1
 181.5 400 l 1,0,-1
181.5 400 m 1,4,-1
 181.5 446 l 1,5,-1
 367.5 446 l 1,6,-1
 367.5 400 l 1,7,-1
 414.5 400 l 1,8,-1
 414.5 353 l 1,9,-1
 367.5 353 l 1,10,-1
 367.5 400 l 1,11,-1
 181.5 400 l 1,4,-1
EndSplineSet
Validated: 524293
EndChar

StartChar: s
Encoding: 115 115 85
Width: 550
Flags: W
LayerCount: 2
Fore
SplineSet
345.5 173 m 1,0,-1
 345.5 266 l 1,1,-1
 278.5 266 l 2,2,3
 225.5 266 225.5 266 215 270.5 c 128,-1,4
 204.5 275 204.5 275 204.5 299 c 0,5,6
 204.5 308 204.5 308 201 310.5 c 128,-1,7
 197.5 313 197.5 313 185.5 313 c 0,8,9
 171.5 313 171.5 313 167.5 317.5 c 128,-1,10
 163.5 322 163.5 322 161.5 340 c 0,11,12
 158.5 363 158.5 363 158.5 386 c 0,13,14
 158.5 400 158.5 400 162.5 403.5 c 128,-1,15
 166.5 407 166.5 407 182.5 407 c 2,16,-1
 204.5 407 l 1,17,-1
 204.5 313 l 1,18,-1
 345.5 313 l 1,19,-1
 345.5 266 l 1,20,-1
 391.5 266 l 1,21,-1
 391.5 173 l 1,22,-1
 345.5 173 l 1,0,-1
345.5 173 m 1,23,-1
 345.5 127 l 1,24,-1
 165.5 127 l 1,25,-1
 165.5 173 l 1,26,-1
 345.5 173 l 1,23,-1
204.5 407 m 1,27,-1
 204.5 453 l 1,28,-1
 391.5 453 l 1,29,-1
 391.5 407 l 1,30,-1
 204.5 407 l 1,27,-1
EndSplineSet
Validated: 524293
EndChar

StartChar: t
Encoding: 116 116 86
Width: 550
Flags: W
LayerCount: 2
Fore
SplineSet
252.5 453 m 1,0,-1
 252.5 546 l 1,1,-1
 298.5 546 l 1,2,-1
 298.5 453 l 1,3,-1
 391.5 453 l 1,4,-1
 391.5 407 l 1,5,-1
 298.5 407 l 1,6,-1
 298.5 127 l 1,7,-1
 252.5 127 l 1,8,-1
 252.5 407 l 1,9,-1
 158.5 407 l 1,10,-1
 158.5 453 l 1,11,-1
 252.5 453 l 1,0,-1
EndSplineSet
Validated: 524289
EndChar

StartChar: u
Encoding: 117 117 87
Width: 550
Flags: W
LayerCount: 2
Fore
SplineSet
135.5 162 m 1,0,-1
 135.5 441 l 1,1,-1
 181.5 441 l 1,2,-1
 181.5 162 l 1,3,-1
 135.5 162 l 1,0,-1
367.5 162 m 1,4,-1
 367.5 115 l 1,5,-1
 181.5 115 l 1,6,-1
 181.5 162 l 1,7,-1
 367.5 162 l 1,4,-1
367.5 162 m 1,8,-1
 367.5 441 l 1,9,-1
 414.5 441 l 1,10,-1
 414.5 162 l 1,11,-1
 367.5 162 l 1,8,-1
EndSplineSet
Validated: 524293
EndChar

StartChar: v
Encoding: 118 118 88
Width: 550
Flags: W
LayerCount: 2
Fore
SplineSet
112.5 394 m 1,0,-1
 112.5 441 l 1,1,-1
 158.5 441 l 1,2,-1
 158.5 394 l 1,3,-1
 205.5 394 l 1,4,-1
 205.5 301 l 1,5,-1
 158.5 301 l 1,6,-1
 158.5 394 l 1,7,-1
 112.5 394 l 1,0,-1
391.5 394 m 1,8,-1
 391.5 301 l 1,9,-1
 344.5 301 l 1,10,-1
 344.5 208 l 1,11,-1
 298.5 208 l 1,12,-1
 298.5 115 l 1,13,-1
 251.5 115 l 1,14,-1
 251.5 208 l 1,15,-1
 205.5 208 l 1,16,-1
 205.5 301 l 1,17,-1
 251.5 301 l 1,18,-1
 251.5 208 l 1,19,-1
 298.5 208 l 1,20,-1
 298.5 301 l 1,21,-1
 344.5 301 l 1,22,-1
 344.5 394 l 1,23,-1
 391.5 394 l 1,8,-1
391.5 394 m 1,24,-1
 391.5 441 l 1,25,-1
 437.5 441 l 1,26,-1
 437.5 394 l 1,27,-1
 391.5 394 l 1,24,-1
EndSplineSet
Validated: 524293
EndChar

StartChar: w
Encoding: 119 119 89
Width: 550
Flags: W
LayerCount: 2
Fore
SplineSet
112.5 162 m 1,0,-1
 112.5 441 l 1,1,-1
 158.5 441 l 1,2,-1
 158.5 162 l 1,3,-1
 112.5 162 l 1,0,-1
391.5 162 m 1,4,-1
 391.5 115 l 1,5,-1
 298.5 115 l 1,6,-1
 298.5 162 l 1,7,-1
 251.5 162 l 1,8,-1
 251.5 115 l 1,9,-1
 158.5 115 l 1,10,-1
 158.5 162 l 1,11,-1
 251.5 162 l 1,12,-1
 251.5 441 l 1,13,-1
 298.5 441 l 1,14,-1
 298.5 162 l 1,15,-1
 391.5 162 l 1,4,-1
391.5 162 m 1,16,-1
 391.5 441 l 1,17,-1
 437.5 441 l 1,18,-1
 437.5 162 l 1,19,-1
 391.5 162 l 1,16,-1
EndSplineSet
Validated: 524293
EndChar

StartChar: x
Encoding: 120 120 90
Width: 550
Flags: W
LayerCount: 2
Fore
SplineSet
112.5 394 m 1,0,-1
 112.5 441 l 1,1,-1
 158.5 441 l 1,2,-1
 158.5 394 l 1,3,-1
 112.5 394 l 1,0,-1
158.5 162 m 1,4,-1
 158.5 208 l 1,5,-1
 205.5 208 l 1,6,-1
 205.5 255 l 1,7,-1
 251.5 255 l 1,8,-1
 251.5 301 l 1,9,-1
 205.5 301 l 1,10,-1
 205.5 348 l 1,11,-1
 158.5 348 l 1,12,-1
 158.5 394 l 1,13,-1
 205.5 394 l 1,14,-1
 205.5 348 l 1,15,-1
 251.5 348 l 1,16,-1
 251.5 301 l 1,17,-1
 298.5 301 l 1,18,-1
 298.5 255 l 1,19,-1
 344.5 255 l 1,20,-1
 344.5 208 l 1,21,-1
 298.5 208 l 1,22,-1
 298.5 255 l 1,23,-1
 251.5 255 l 1,24,-1
 251.5 208 l 1,25,-1
 205.5 208 l 1,26,-1
 205.5 162 l 1,27,-1
 158.5 162 l 1,4,-1
158.5 162 m 1,28,-1
 158.5 115 l 1,29,-1
 112.5 115 l 1,30,-1
 112.5 162 l 1,31,-1
 158.5 162 l 1,28,-1
391.5 162 m 1,32,-1
 344.5 162 l 1,33,-1
 344.5 208 l 1,34,-1
 391.5 208 l 1,35,-1
 391.5 162 l 1,32,-1
391.5 162 m 1,36,-1
 437.5 162 l 1,37,-1
 437.5 115 l 1,38,-1
 391.5 115 l 1,39,-1
 391.5 162 l 1,36,-1
391.5 394 m 1,40,-1
 391.5 348 l 1,41,-1
 344.5 348 l 1,42,-1
 344.5 301 l 1,43,-1
 298.5 301 l 1,44,-1
 298.5 348 l 1,45,-1
 344.5 348 l 1,46,-1
 344.5 394 l 1,47,-1
 391.5 394 l 1,40,-1
391.5 394 m 1,48,-1
 391.5 441 l 1,49,-1
 437.5 441 l 1,50,-1
 437.5 394 l 1,51,-1
 391.5 394 l 1,48,-1
EndSplineSet
Validated: 524293
EndChar

StartChar: y
Encoding: 121 121 91
Width: 550
Flags: W
LayerCount: 2
Fore
SplineSet
135.5 162 m 1,0,-1
 135.5 441 l 1,1,-1
 181.5 441 l 1,2,-1
 181.5 162 l 1,3,-1
 135.5 162 l 1,0,-1
181.5 23 m 1,4,-1
 367.5 23 l 1,5,-1
 367.5 115 l 1,6,-1
 181.5 115 l 1,7,-1
 181.5 162 l 1,8,-1
 367.5 162 l 1,9,-1
 367.5 441 l 1,10,-1
 414.5 441 l 1,11,-1
 414.5 23 l 1,12,-1
 367.5 23 l 1,13,-1
 367.5 -25 l 1,14,-1
 181.5 -25 l 1,15,-1
 181.5 23 l 1,4,-1
181.5 23 m 1,16,-1
 135.5 23 l 1,17,-1
 135.5 69 l 1,18,-1
 181.5 69 l 1,19,-1
 181.5 23 l 1,16,-1
EndSplineSet
Validated: 524293
EndChar

StartChar: z
Encoding: 122 122 92
Width: 550
Flags: W
LayerCount: 2
Fore
SplineSet
135.5 400 m 1,0,-1
 135.5 446 l 1,1,-1
 414.5 446 l 1,2,-1
 414.5 353 l 1,3,-1
 367.5 353 l 1,4,-1
 367.5 307 l 1,5,-1
 321.5 307 l 1,6,-1
 321.5 353 l 1,7,-1
 367.5 353 l 1,8,-1
 367.5 400 l 1,9,-1
 135.5 400 l 1,0,-1
181.5 214 m 1,10,-1
 181.5 261 l 1,11,-1
 228.5 261 l 1,12,-1
 228.5 307 l 1,13,-1
 321.5 307 l 1,14,-1
 321.5 261 l 1,15,-1
 228.5 261 l 1,16,-1
 228.5 214 l 1,17,-1
 181.5 214 l 1,10,-1
181.5 214 m 1,18,-1
 181.5 168 l 1,19,-1
 414.5 168 l 1,20,-1
 414.5 121 l 1,21,-1
 135.5 121 l 1,22,-1
 135.5 214 l 1,23,-1
 181.5 214 l 1,18,-1
EndSplineSet
Validated: 524293
EndChar

StartChar: braceleft
Encoding: 123 123 93
Width: 550
Flags: W
LayerCount: 2
Fore
SplineSet
298.5 633 m 1,0,-1
 298.5 680 l 1,1,-1
 391.5 680 l 1,2,-1
 391.5 633 l 1,3,-1
 298.5 633 l 1,4,-1
 298.5 400 l 1,5,-1
 204.5 400 l 1,6,-1
 204.5 446 l 1,7,-1
 252.5 446 l 1,8,-1
 252.5 633 l 1,9,-1
 298.5 633 l 1,0,-1
204.5 307 m 1,10,-1
 158.5 307 l 1,11,-1
 158.5 400 l 1,12,-1
 204.5 400 l 1,13,-1
 204.5 307 l 1,10,-1
204.5 307 m 1,14,-1
 298.5 307 l 1,15,-1
 298.5 75 l 1,16,-1
 391.5 75 l 1,17,-1
 391.5 28 l 1,18,-1
 298.5 28 l 1,19,-1
 298.5 51 l 2,20,21
 298.5 68 298.5 68 296 71.5 c 128,-1,22
 293.5 75 293.5 75 278.5 75 c 0,23,24
 259.5 75 259.5 75 256 90 c 128,-1,25
 252.5 105 252.5 105 252.5 181 c 2,26,-1
 252.5 261 l 1,27,-1
 204.5 261 l 1,28,-1
 204.5 307 l 1,14,-1
EndSplineSet
Validated: 524293
EndChar

StartChar: bar
Encoding: 124 124 94
Width: 550
Flags: W
LayerCount: 2
Fore
SplineSet
251.5 24 m 1,0,-1
 251.5 679 l 1,1,-1
 298.5 679 l 1,2,-1
 298.5 24 l 1,3,-1
 251.5 24 l 1,0,-1
EndSplineSet
Validated: 524289
EndChar

StartChar: braceright
Encoding: 125 125 95
Width: 550
Flags: W
LayerCount: 2
Fore
SplineSet
157.5 632 m 1,0,-1
 157.5 679 l 1,1,-1
 251.5 679 l 1,2,-1
 251.5 632 l 1,3,-1
 157.5 632 l 1,0,-1
251.5 71 m 1,4,-1
 251.5 304 l 1,5,-1
 345.5 304 l 1,6,-1
 345.5 398 l 1,7,-1
 251.5 398 l 1,8,-1
 251.5 632 l 1,9,-1
 298.5 632 l 1,10,-1
 298.5 444 l 1,11,-1
 345.5 444 l 1,12,-1
 345.5 398 l 1,13,-1
 392.5 398 l 1,14,-1
 392.5 304 l 1,15,-1
 345.5 304 l 1,16,-1
 345.5 257 l 1,17,-1
 298.5 257 l 1,18,-1
 298.5 71 l 1,19,-1
 251.5 71 l 1,4,-1
251.5 71 m 1,20,-1
 251.5 24 l 1,21,-1
 157.5 24 l 1,22,-1
 157.5 71 l 1,23,-1
 251.5 71 l 1,20,-1
EndSplineSet
Validated: 524293
EndChar

StartChar: asciitilde
Encoding: 126 126 96
Width: 550
Flags: W
LayerCount: 2
Fore
SplineSet
134 351 m 1,0,-1
 134 398 l 1,1,-1
 228 398 l 1,2,-1
 228 351 l 1,3,-1
 134 351 l 1,4,-1
 134 304 l 1,5,-1
 41 304 l 1,6,-1
 41 339 l 0,7,-1
 41 351 l 1,8,-1
 134 351 l 1,0,-1
415 304 m 1,9,-1
 415 257 l 1,10,-1
 321 257 l 1,11,-1
 321 304 l 1,12,-1
 228 304 l 1,13,-1
 228 351 l 1,14,-1
 321 351 l 1,15,-1
 321 304 l 1,16,-1
 415 304 l 1,9,-1
415 304 m 1,17,-1
 415 351 l 1,18,-1
 509 351 l 1,19,-1
 509 304 l 1,20,-1
 415 304 l 1,17,-1
EndSplineSet
Validated: 5
EndChar

